<svg xmlns="http://www.w3.org/2000/svg" width="44" height="44" viewBox="0 0 44 44"><path d="M39.72,9.14c-1.67-1.05-4.48-2.86-5.43-4.85a18.67,18.67,0,0,1-.8-2.43H31.63A18.69,18.69,0,0,0,33,5.9c.57,1,2.76,2.24,4.66,3.38a21.83,21.83,0,0,1,3.52,2.28c.34.29.67.62,1,.9V11a12.48,12.48,0,0,0-1.8-1.52c-.19-.1-.38-.19-.62-.33"/><path d="M36.05,2.62c-.1-.24-.19-.53-.28-.76h-2a11,11,0,0,0,.81,2.23c1,1.9,3.66,3.67,5.28,4.71.2.14.41.26.62.38a17.06,17.06,0,0,1,1.61,1.34V9.14c-.28-.24-.61-.53-1-.81C39.29,6.85,36.86,4.9,36,2.62"/><path d="M29.43,14.19a5.39,5.39,0,0,0-1.9,3.38,12.83,12.83,0,0,0-.28,2.23h2.18Z"/><path d="M35,19.85a2.17,2.17,0,0,0,1-1.67c0-1.09-1.38-2.61-2.37-3.14l-.29-.14v5.8A11.29,11.29,0,0,0,35,19.85"/><path d="M20.5,34.44c-1.14.28-2.14.47-2.71.62-1.67.33-2.76-.15-3.28-1.43a6.45,6.45,0,0,1-.1-2.19l-1.62,1.38c.05,3.09.47,5,.85,5a29.7,29.7,0,0,0,5.05-1.53,26,26,0,0,1,2.85-1c1.38-.43,6.19-1.62,9.8-2.47l-.57-.53a14.53,14.53,0,0,1-1.61.24c-2.05.34-5.86,1.24-8.66,1.9"/><path d="M15.09,24.06h-.47v4.19c.1-1.34.24-2.62.38-3.38,0-.15.05-.43.1-.81"/><path d="M35.15,32.09a21.54,21.54,0,0,1,3-.24,7.09,7.09,0,0,1,4,.9V31.56A9.59,9.59,0,0,0,38.29,31a44,44,0,0,0-4.56.81,2.79,2.79,0,0,0-.39.1v.57c.86-.19,1.48-.34,1.81-.38"/><path d="M14.57,19.79h1.09c.62-4.89,1.57-12.22,2.24-17.94H16.23C16,3.09,15.9,4.19,15.8,5c-.18,1.9-.61,4.19-1,6.24a13.55,13.55,0,0,0-.23,1.42V19.8Z"/><path d="M40.91,11.85a20.84,20.84,0,0,0-3.48-2.24c-2.09-1.19-4.18-2.42-4.8-3.52a24.42,24.42,0,0,1-1.38-4.24H29.72A9.45,9.45,0,0,1,30.06,3v.1a28.31,28.31,0,0,0,2.71,5.66,1.78,1.78,0,0,0,.62.57h0a15.15,15.15,0,0,0,2.66,1.28,19,19,0,0,1,2.38,1.1,12.65,12.65,0,0,1,3.71,3.43V13l-.1-.1c-.42-.38-.8-.76-1.14-1.05"/><path d="M39.57,25.3c.52-.05,1-.1,1.67-.19.28-.05.61-.05.9-.1V23a35.32,35.32,0,0,1-3.62,1.28h-.1L36.33,25c-.91.33-1.9.66-2.9.95v.81a53.26,53.26,0,0,1,6.13-1.38"/><path d="M35.1,11.58l1,.43c1.62.71,3.86,2.76,6,5.42V15.58a13,13,0,0,0-3.85-3.71,22.69,22.69,0,0,0-2.33-1,15.77,15.77,0,0,1-2.53-1.19v1.19a8.56,8.56,0,0,0,1.62.76"/><path d="M23.44,18.18c.33-2,1.33-6.43,1.38-6.62.71-3.14,2.71-6.13,3.71-6.13.57,0,1.09.8,2.19,2.71a15.31,15.31,0,0,0,1,1.57,2.6,2.6,0,0,0,.67.57l.85-.71A2.6,2.6,0,0,1,32.57,9a26.76,26.76,0,0,1-2.76-5.76v-.1c-.1-.33-.24-.76-.38-1.19h-3a24.93,24.93,0,0,0-2.52,6.62c0,.1-1.62,8.47-2.05,11.32h1.38a8.45,8.45,0,0,1,.19-1.66"/><path d="M25.06,27.25a5.4,5.4,0,0,1-2.38-3.14H21.4a4,4,0,0,0,1,2.85,6,6,0,0,0,5.29,1.38c.33-.1.95-.24,1.71-.43V27a16.43,16.43,0,0,1-3.28.48,5.28,5.28,0,0,1-1.1-.24"/><path d="M33.58,12.81l1.57.47a11.63,11.63,0,0,1,3.52,3.14c.9,1.19,1.62,3.09,1.38,3.71A4.29,4.29,0,0,1,38.1,21.9c-.52.23-2.71,1.09-4.66,1.8v1.43c.9-.29,1.8-.57,2.66-.86s1.48-.48,2.1-.71h.1a29.29,29.29,0,0,0,3.84-1.38V18.61l-.61-.76c-2.05-2.57-4.24-4.57-5.76-5.23a8.81,8.81,0,0,0-1-.43,14.19,14.19,0,0,1-1.38-.62v1.09a.15.15,0,0,0,.14.15"/><path d="M25.91,24.82a1.43,1.43,0,0,1-.85-.71H23.39a4.52,4.52,0,0,0,1.95,2.47c.67.29,2.52,0,4.09-.38V25a10.86,10.86,0,0,1-1.28.1,7.7,7.7,0,0,1-2.24-.29"/><path d="M31.09,10.14c-.36-.54-.69-1.1-1-1.67a9.94,9.94,0,0,0-1.52-2.33c-.52.14-2.28,2.43-3,5.57h0s-1.09,4.61-1.38,6.56c-.1.48-.19,1-.28,1.53h1.38c.14-.86.28-1.86.47-2.95s.34-2.05.43-2.62a5.85,5.85,0,0,1,2.33-3.9c.57-.29,1.53.52,2.34,1.24l.95-.81a1.88,1.88,0,0,1-.72-.62"/><path d="M7.71,34.55A29,29,0,0,0,8,31.61c0-1.42,0-4.22.1-6.69,0-1.9.1-3.56.1-4.22,0-1.47-.43-8.07-.57-9.4a10.06,10.06,0,0,1,1-3.8c.14-.43.33-.81.42-1.14a43.59,43.59,0,0,0,1.14-4.5H8.85A40.08,40.08,0,0,1,6.28,8.79l-.1.14a4.47,4.47,0,0,0-.71,3.8,11.21,11.21,0,0,0,.47,1.38,9.53,9.53,0,0,1,.76,4.08c0,1.56,0,3.13-.1,4.79s-.14,3.51-.1,5.41v4.84a36.26,36.26,0,0,0,0,4.17c.1.76.23,1.52.38,2.23a17.93,17.93,0,0,1,.39,2.51h.86c-.19-1.09-.33-2.32-.47-3.65a11.85,11.85,0,0,1,.1-3.94"/><path d="M4,26.72c-.1-1.71-.1-3.51-.1-5.12a47.11,47.11,0,0,0-.19-5.18c-.1-.56-.29-1.28-.48-2-.43-1.61-1-3.42-.71-4.6a15,15,0,0,1,1.81-3.7A45.45,45.45,0,0,0,6.57,1.86H5.19A26.18,26.18,0,0,1,2.05,7.65c0,.09-.15.14-.19.19v8.87A1.55,1.55,0,0,0,2,17a39.75,39.75,0,0,1,1,9.16v7.55a37.71,37.71,0,0,1-.76,4.6C2.1,39,2,39.58,1.86,40.15v2H3.29a5.72,5.72,0,0,1,.14-.81A30,30,0,0,0,4,37.82a79.08,79.08,0,0,0,0-11.1"/><path d="M6,37.4V33.18c0-1.4.1-3.14,0-4.84,0-1.9,0-3.66.1-5.41s.14-3.23.1-4.8a9.5,9.5,0,0,0-.71-3.94A11.85,11.85,0,0,1,5,12.77a5.08,5.08,0,0,1,.76-4.08V8.55A37.63,37.63,0,0,0,8.42,1.76H7.33A42,42,0,0,1,5,6.41,19.73,19.73,0,0,0,3.19,9.88a11.72,11.72,0,0,0,.71,4.27c.19.76.43,1.47.52,2.09a44,44,0,0,1,.24,5.26c0,1.62,0,3.42.1,5.08a76.84,76.84,0,0,1,0,11.15c-.14,1.19-.38,2.42-.57,3.61L4.05,42H6.81a12.84,12.84,0,0,0-.38-2.46,11.17,11.17,0,0,1-.38-2.14"/><path d="M21.69,36c-.71.23-1.7.61-2.79,1-3,1.14-4.83,1.8-5.54,1.57s-1.23-2-1.33-5.14l-1,.9c-.14,1.9-.24,3.52-.24,4.14V39c0,1.15,0,2.76.33,3s3.5-1,5.78-2.24c.62-.33,1.14-.66,1.7-.95a17.46,17.46,0,0,1,3.27-1.62c1.61-.52,7.81-2.19,9.75-2.61l.43-.1a8.22,8.22,0,0,0,.8-.19l-.9-.81c-3.5.76-8.62,2-10.23,2.52"/><path d="M14.1,11.13c.38-2,.81-4.32,1-6.18.1-.81.24-1.9.43-3.09H14.24c-.1.57-.19,1.09-.28,1.52s-.24,1-.38,1.52c-.43,1.76-.9,3.76-1.29,5.81l1.62,1.42a8.4,8.4,0,0,1,.19-1"/><path d="M37.05,33.74a5.88,5.88,0,0,1,3,.62,7.26,7.26,0,0,1,2.19,1.86V33.69c-1.52-1.47-5.09-1-6.8-.85a10.84,10.84,0,0,0-1.85.33v1a17.16,17.16,0,0,1,3.57-.43"/><path d="M9.11,41.24a33.78,33.78,0,0,1-.1-5.6c.05-.66.05-1.37.05-2,0-1.14.14-3,.24-4.93.14-2.66.33-5.41.33-6.93,0-.81,0-1.85-.05-2.94,0-2.52,0-5.37.05-7.08a31.35,31.35,0,0,1,1-5.07,29,29,0,0,0,.9-3.9,4.92,4.92,0,0,0,.1-.94H10.45A44,44,0,0,1,9.3,6.51c-.14.33-.28.75-.42,1.18a9.87,9.87,0,0,0-1,3.61c.15,1.37.58,7.92.58,9.44,0,.67-.05,2.33-.1,4.22,0,2.47-.1,5.22-.1,6.7a23.32,23.32,0,0,1-.24,3,17,17,0,0,0-.14,3.84c.1,1,.24,2.42.48,3.7h1v-.29a5.39,5.39,0,0,1-.18-.66"/><path d="M3.24,1.86A13.49,13.49,0,0,1,1.9,4.23V7.29A26.51,26.51,0,0,0,4.81,1.86Z"/><path d="M10.54,9.26l1.38,1.19c.38-2,.86-3.94,1.28-5.6.15-.53.24-1,.38-1.52s.19-.91.29-1.43H12.11a8.26,8.26,0,0,0-.1,1c-.19,1.14-.53,2.52-.9,3.94a26.52,26.52,0,0,0-1,5c-.1,1.67,0,4.51,0,7,0,1.09,0,2.13,0,3,0,1.52-.14,4.27-.33,6.92-.1,2-.24,3.85-.24,4.94,0,.62,0,1.28,0,2a28.88,28.88,0,0,0,0,5.5,4,4,0,0,0,.14.67c0,.24,0,.23.1.33h1.09c-.33-.48-.33-1.57-.33-3.18v-.48c0-.56.1-2,.19-3.8V9.26Z"/><path d="M33.87,14.76c1,.47,2.61,2.14,2.57,3.47a2.33,2.33,0,0,1-1.24,1.95c-.05.05-.86.48-1.76,1v2.19c1.89-.72,4-1.53,4.47-1.77A4,4,0,0,0,39.67,20a6.35,6.35,0,0,0-1.34-3.38,10.29,10.29,0,0,0-3.33-3,14.22,14.22,0,0,0-1.57-.48h0v1.38a3.58,3.58,0,0,1,.48.24"/><path d="M27.14,17.48c.34-1.72,1.29-3.29,2.24-3.71v-1l1.09-1c-.52-.48-1.33-1.15-1.76-1.15a.24.24,0,0,0-.14.05,5.49,5.49,0,0,0-2.09,3.62c-.1.57-.24,1.57-.43,2.66s-.33,1.95-.48,2.86h1.29c.05-.76.19-1.57.28-2.33"/><path d="M25.53,24.06a1.43,1.43,0,0,0,.52.39,8.94,8.94,0,0,0,3.38.19v-.58Z"/><path d="M33.89,41.91c-1.14-.86-3.9-.67-6.09-.15-.37.11-.73.24-1.09.38h7.42c-.1-.1-.14-.19-.24-.23"/><path d="M41.57,1.86H40.19a15.27,15.27,0,0,0,2,3.09V3.14c-.06-.11-.12-.22-.19-.33s-.23-.57-.38-.95"/><path d="M36.15,39c-.71-.33-5.43.43-7.47,1a37.44,37.44,0,0,0-5.38,2.19h1.43a19.26,19.26,0,0,1,2.85-1c2.34-.57,5.29-.81,6.71.23a4,4,0,0,1,.72.81h2.57V42c-.29-1.62-.62-2.52-1.38-2.86"/><path d="M32.68,37.48l-1,.14a57.52,57.52,0,0,0-9.14,3.1,28.75,28.75,0,0,0-2.76,1.42h2.71a44.86,44.86,0,0,1,6.19-2.52c1.9-.47,6.8-1.38,7.71-.95s1.24,1.38,1.57,3.09a1.64,1.64,0,0,0,.1.38H40c-.33-2.14-.71-4.09-1.43-4.75s-3.9-.24-5.9.1"/><path d="M33.2,34.58c-.38.1-.76.14-1.1.24l-.42.1c-1.95.42-8.14,2.09-9.76,2.57a18.36,18.36,0,0,0-3.23,1.61c-.53.34-1.1.62-1.72,1a34.23,34.23,0,0,1-4.76,2.1h3.95a9.13,9.13,0,0,0,1.1-.62c.57-.38,1-.67,1.38-.95a12.64,12.64,0,0,1,3.09-1.77c2.1-.9,10.42-3,11.61-3.28a14.57,14.57,0,0,1,2.95-.24,8.59,8.59,0,0,1,3.14.43c1.38.62,2.33,2.47,2.71,5v-3.9a6.53,6.53,0,0,0-2.33-2.19c-1.66-.9-4.33-.57-6.37-.14v.19Z"/><path d="M1.86,1.86v1.8a13.75,13.75,0,0,0,1-1.8Z"/><path d="M22.21,27.2A4.13,4.13,0,0,1,21,24.1H19.54a11.86,11.86,0,0,0,.1,2.38A4.23,4.23,0,0,0,24.3,30.1a42.79,42.79,0,0,0,5.14-1v-.9l-1.61.42a6.46,6.46,0,0,1-5.62-1.47"/><path d="M23.5,8.42a26.07,26.07,0,0,1,2.42-6.57H22.83c-.71,3.72-3,17.66-3,17.8v.15h1.62c.38-2.76,1.95-11,2-11.38"/><path d="M38.1,27.15a2.81,2.81,0,0,0,.71,0c.57,0,1.33,0,2.1,0a10.12,10.12,0,0,1,1.23,0V25.39c-.28.05-.57.05-.85.1-.57.05-1.14.14-1.67.19a46.86,46.86,0,0,0-6.18,1.42v1a43.79,43.79,0,0,1,4.66-1"/><path d="M41.91,41.72c-.24-2.9-1.24-5-2.62-5.67s-4.76-.43-5.85-.19S24,38.24,21.92,39.15a13.12,13.12,0,0,0-3,1.76l-1.38,1a5.21,5.21,0,0,1-.52.28h2.05c1.09-.61,2.52-1.38,3.37-1.76,1.19-.52,7-2.8,9.24-3.14l1-.14a35.94,35.94,0,0,1,4.14-.48,3.13,3.13,0,0,1,2,.48c.8.76,1.19,2.76,1.57,5H42Z"/><path d="M2.62,33.63c.1-1.38,0-2.72,0-4.19V26.16a42.4,42.4,0,0,0-.76-7.95v20h0c.33-1.76.66-3.47.76-4.61"/><path d="M39.91,5.09a22,22,0,0,1-2.29-3.23H36.14c.1.23.15.42.24.66.81,2.14,3.19,4.09,4.95,5.52l.76.62v-1c-.53-.54-1-1.12-1.52-1.71a7.44,7.44,0,0,0-.66-.9"/><path d="M38.48,1.86a21.53,21.53,0,0,0,2,2.76c.24.28.48.61.71.9a9.36,9.36,0,0,0,1,1.09V5.52a15.29,15.29,0,0,1-2.34-3.66Z"/><path d="M40,29a4.91,4.91,0,0,1,.86.05,8.76,8.76,0,0,1,1.24.24V27.43a24.68,24.68,0,0,0-3.33.05c-.29,0-.53.05-.72.05a42,42,0,0,0-4.71,1V30A36.43,36.43,0,0,1,40,29"/><path d="M19.26,26.53a12.09,12.09,0,0,1-.1-2.48H17.4c-.07.54-.12,1.08-.14,1.62h0c-.14,2-.33,4.66.71,5.19s6.48.8,8.76.52a25.09,25.09,0,0,0,2.71-.57V29.48a42.64,42.64,0,0,1-5.14.95,4.57,4.57,0,0,1-5-3.9"/><path d="M19.46,19.6c.05-.14,2.29-13.94,3-17.74h-2.1c-.19,1.42-.38,2.57-.43,3-.19,1-1.23,9.09-2,14.94h1.53v-.2"/><path d="M42,1.86c0,.14.15.28.19.42V1.86Z"/><path d="M33.72,31.42a45.08,45.08,0,0,1,4.62-.81h.33a13.19,13.19,0,0,1,3.47.57V29.66a6.22,6.22,0,0,0-1.28-.28,27.77,27.77,0,0,0-7.42.95v1.14h.28"/><path d="M19.56,4.81c.1-.43.24-1.57.43-2.95H18.23C17.51,7.57,16.61,14.94,16,19.8h1.57c.76-5.86,1.81-13.95,2-15"/><path d="M17.79,31.23c-1.24-.62-1.05-3.33-.9-5.52v-.05c0-.28.1-.86.14-1.62H15.41a6.19,6.19,0,0,1-.15.86c-.33,2.24-.81,7.85-.47,8.57s.9,1.61,2.9,1.23c.57-.14,1.57-.33,2.71-.62,2.81-.66,6.66-1.52,8.66-1.8.38-.05.86-.15,1.28-.19l-.95-.81h0c-1.14.23-2,.47-2.66.52-2.38.29-7.76.05-8.95-.57"/><path d="M44,44H0V0H44ZM.76,43.24H43.29V.76H.76Z"/></svg>