<svg xmlns="http://www.w3.org/2000/svg" width="65" height="65" viewBox="0 0 65 65"><defs><style>.a{fill:#ff6b00;}.b,.c{fill:none;stroke:#ff6b00;stroke-miterlimit:10;}.c{stroke-linecap:round;}</style></defs><path class="a" d="M32.5,1A31.5,31.5,0,1,1,1,32.5,31.5,31.5,0,0,1,32.5,1m0-1A32.5,32.5,0,1,0,65,32.5,32.56,32.56,0,0,0,32.5,0Z"/><path class="b" d="M42.9,47.3H21.5"/><path class="b" d="M19.3,47.3H16.1A3.33,3.33,0,0,1,12.8,44V17.7a3.33,3.33,0,0,1,3.3-3.3H42.3a3.33,3.33,0,0,1,3.3,3.3v23"/><line class="b" x1="12.8" y1="31" x2="45.5" y2="31"/><line class="b" x1="29.2" y1="19.3" x2="29.2" y2="47.3"/><circle class="b" cx="33" cy="26.9" r="2.2"/><line class="c" x1="33.6" y1="26.9" x2="32.5" y2="26.9"/><circle class="b" cx="17" cy="26.9" r="2.2"/><line class="c" x1="17.5" y1="26.9" x2="16.4" y2="26.9"/><circle class="b" cx="33" cy="43" r="2.2"/><line class="c" x1="33.6" y1="43" x2="32.5" y2="43"/><circle class="b" cx="17" cy="43" r="2.2"/><line class="c" x1="17.5" y1="43" x2="16.4" y2="43"/><path class="b" d="M53.8,51.1H44.1a1.16,1.16,0,0,1-1.2-1.2V42a1.16,1.16,0,0,1,1.2-1.2h9.7A1.16,1.16,0,0,1,55,42v7.9A1.22,1.22,0,0,1,53.8,51.1Z"/><path class="b" d="M46,40.7V39.2a3.1,3.1,0,0,1,6.2,0v1.5m-2,0V38.9a1.1,1.1,0,0,0-2.2,0v1.8"/><line class="b" x1="29.2" y1="17.4" x2="29.2" y2="14.4"/><path class="b" d="M50.9,44.9a2,2,0,0,1-1.2,1.8v1.4a.8.8,0,0,1-1.6,0V46.7a2,2,0,0,1-1.2-1.8,2,2,0,0,1,2-2A2.07,2.07,0,0,1,50.9,44.9Z"/></svg>