<svg xmlns="http://www.w3.org/2000/svg" width="65" height="65" viewBox="0 0 65 65"><defs><style>.a{fill:#ff6b00;}.b,.c{fill:none;stroke:#ff6b00;stroke-linejoin:round;}.c{stroke-dasharray:2.97 2.97;}</style></defs><path class="a" d="M32.5,1A31.5,31.5,0,1,1,1,32.5,31.5,31.5,0,0,1,32.5,1m0-1A32.5,32.5,0,1,0,65,32.5,32.56,32.56,0,0,0,32.5,0Z"/><path class="b" d="M46.1,55.1l2.1-3.4h0l4.9-4.2,3.3-5.3,1.1-3.6a4.13,4.13,0,0,0,.2-1.9l-.2-1c-.2-1-.6-1.7-1.7-1.4a1.76,1.76,0,0,0-1.2,1.9l.1.9-.9,3-4,4.8,2.1-4.5a1.37,1.37,0,0,0-.6-1.9,1.64,1.64,0,0,0-2.1.6l-4.6,7.4a22.56,22.56,0,0,0-1.1,2.2l-1.3,3.5"/><path class="b" d="M18.9,55.1l-2.1-3.4h0l-4.9-4.2L8.6,42.2,7.5,38.6a4.13,4.13,0,0,1-.2-1.9l.2-1c.2-1,.6-1.7,1.7-1.4a1.76,1.76,0,0,1,1.2,1.9l-.1.9.9,3,4,4.8-2.1-4.5a1.37,1.37,0,0,1,.6-1.9,1.64,1.64,0,0,1,2.1.6l4.6,7.4a22.56,22.56,0,0,1,1.1,2.2l1.3,3.5"/><path class="a" d="M38.4,10.9a1,1,0,0,1,1,1v2.6l1.2-.3,1.3-.3c.1,0,.2.1.2.3a.27.27,0,0,1-.3.3h-.2l-1.4.3-.8.2v2.4a1,1,0,0,1-1,1H26.6a1,1,0,0,1-1-1V15l-.8-.2-1.4-.3h-.2a.27.27,0,0,1-.3-.3c0-.1.1-.2.2-.3l1.3.3,1.2.3V11.9a1,1,0,0,1,1-1H38.4m0-1H26.6a2,2,0,0,0-2,2v1.4L23.2,13a1.3,1.3,0,0,0,0,2.6l1.4.3v1.6a2,2,0,0,0,2,2H38.4a2,2,0,0,0,2-2V15.9l1.4-.3a1.3,1.3,0,1,0,0-2.6l-1.4.3V11.9a1.94,1.94,0,0,0-2-2Z"/><path class="a" d="M38.4,19.6a1,1,0,0,1,1,1v2.6l1.2-.3,1.3-.3c.1,0,.2.1.2.3a.27.27,0,0,1-.3.3h-.2l-1.4.3-.8.2v2.4a1,1,0,0,1-1,1H26.6a1,1,0,0,1-1-1V23.7l-.8-.2-1.4-.3h-.2a.27.27,0,0,1-.3-.3c0-.1.1-.2.2-.3l1.3.3,1.2.3V20.6a1,1,0,0,1,1-1H38.4m0-1H26.6a2,2,0,0,0-2,2V22l-1.4-.3a1.3,1.3,0,1,0,0,2.6l1.4.3v1.6a2,2,0,0,0,2,2H38.4a2,2,0,0,0,2-2V24.6l1.4-.3a1.3,1.3,0,1,0,0-2.6l-1.4.3V20.6a2,2,0,0,0-2-2Z"/><path class="a" d="M38.4,28.3a1,1,0,0,1,1,1v2.6l1.2-.3,1.3-.3c.1,0,.2.1.2.3a.27.27,0,0,1-.3.3h-.2l-1.4.3-.8.2v2.4a1,1,0,0,1-1,1H26.6a1,1,0,0,1-1-1V32.4l-.8-.2-1.4-.3h-.2a.27.27,0,0,1-.3-.3c0-.1.1-.2.2-.3l1.3.3,1.2.3V29.3a1,1,0,0,1,1-1H38.4m0-1H26.6a2,2,0,0,0-2,2v1.4l-1.4-.3a1.3,1.3,0,0,0,0,2.6l1.4.3v1.6a2,2,0,0,0,2,2H38.4a2,2,0,0,0,2-2V33.3l1.4-.3a1.3,1.3,0,1,0,0-2.6l-1.4.3V29.3a2,2,0,0,0-2-2Z"/><path class="a" d="M38.4,37a1,1,0,0,1,1,1v2.6l1.2-.3,1.3-.3c.1,0,.2.1.2.3a.27.27,0,0,1-.3.3h-.2l-1.4.4-.8.2v2.4a1,1,0,0,1-1,1H26.6a1,1,0,0,1-1-1V41.2l-.8-.2-1.4-.3h-.2a.27.27,0,0,1-.3-.3c0-.1.1-.2.2-.3l1.3.3,1.2.3V38a1,1,0,0,1,1-1H38.4m0-1H26.6a2,2,0,0,0-2,2v1.4l-1.4-.3a1.3,1.3,0,1,0,0,2.6l1.4.3v1.6a2,2,0,0,0,2,2H38.4a2,2,0,0,0,2-2V42l1.4-.3a1.3,1.3,0,1,0,0-2.6l-1.4.3V38a2,2,0,0,0-2-2Z"/><line class="b" x1="32.5" y1="4.7" x2="32.5" y2="6.2"/><line class="c" x1="32.5" y1="9.2" x2="32.5" y2="55.2"/><line class="b" x1="32.5" y1="56.7" x2="32.5" y2="58.2"/></svg>