<svg xmlns="http://www.w3.org/2000/svg" width="65" height="65" viewBox="0 0 65 65"><defs><style>.a{fill:#ff6b00;}.b{fill:none;stroke:#ff6b00;stroke-linejoin:round;}</style></defs><path class="a" d="M32.5,1a31.41,31.41,0,1,1-22.3,9.2A31.65,31.65,0,0,1,32.5,1m0-1a32.5,32.5,0,1,0,0,65,32.5,32.5,0,0,0,23-55.5A32.74,32.74,0,0,0,32.5,0Z"/><line class="b" x1="28.2" y1="54.8" x2="25.1" y2="54.8"/><line class="b" x1="23.4" y1="54.8" x2="20.3" y2="54.8"/><path class="b" d="M35.7,54.8h0c-1.7,0-3.1-1.7-3.1-3.8V19a7.9,7.9,0,0,1,.9-3.8l1.3-2.6a1,1,0,0,1,1.9,0L38,15.2a8.49,8.49,0,0,1,.9,3.8V51C38.8,53.1,37.4,54.8,35.7,54.8Z"/><path class="b" d="M41.9,54.8h0c-1.7,0-3.1-1.7-3.1-3.8V19a7.9,7.9,0,0,1,.9-3.8L41,12.6a1,1,0,0,1,1.9,0l1.3,2.6a8.49,8.49,0,0,1,.9,3.8V51C45,53.1,43.6,54.8,41.9,54.8Z"/><line class="b" x1="26.6" y1="18.2" x2="26.6" y2="57"/><line class="b" x1="21.8" y1="18.2" x2="21.8" y2="57"/><path class="b" d="M25.1,11.2v7.1h3.1V11.2a1.47,1.47,0,0,0-1.5-1.5h0A1.44,1.44,0,0,0,25.1,11.2Z"/><path class="b" d="M20.3,11.2v7.1h3.1V11.2a1.47,1.47,0,0,0-1.5-1.5h0A1.44,1.44,0,0,0,20.3,11.2Z"/><path class="b" d="M28.2,12a2.3,2.3,0,0,1,0,4.6"/><path class="b" d="M20.3,16.6a2.3,2.3,0,0,1,0-4.6"/></svg>