<svg xmlns="http://www.w3.org/2000/svg" width="178" height="44" viewBox="0 0 178 44"><path d="M56.79,9.33l-2.52.08c-1,.05-1.37.13-1.63.47a2.41,2.41,0,0,0-.3.6c0,.13-.08.22-.17.22s-.17-.09-.17-.26.3-1.8.34-1.92.09-.3.22-.3a4.27,4.27,0,0,0,.72.21c.47,0,1.12.09,1.67.09h6.72a7.33,7.33,0,0,0,1.15-.09c.26,0,.39-.09.48-.09s.12.09.12.35,0,1.5,0,2c0,.17,0,.26-.17.26s-.17-.09-.17-.34V10.4c0-.43-.47-.9-2-.94l-2.14-.05v6.8c0,1.54,0,2.87.09,3.6,0,.47.17.85.64.9a4.91,4.91,0,0,0,.86.08c.17,0,.25.05.25.13s-.13.17-.3.17c-1.11,0-2.18,0-2.65,0s-1.46,0-2.14,0c-.21,0-.34,0-.34-.17s.08-.13.26-.13a1.77,1.77,0,0,0,.6-.08c.34-.09.42-.43.47-.94.08-.73.08-2.06.08-3.6V9.33Z"/><path d="M74.89,13.73s.09,0,.09-.12v-.35c0-2.56,0-3,0-3.59s-.18-.86-.73-.94a2.76,2.76,0,0,0-.64,0c-.17,0-.3,0-.3-.18s.12-.17.34-.17c.9,0,2,.05,2.44.05s1.45-.05,2.14-.05c.25,0,.34.05.34.17s-.09.18-.3.18a1.83,1.83,0,0,0-.47,0c-.47.08-.6.38-.64.94s-.05,1-.05,3.59v3c0,1.54,0,2.86.09,3.59,0,.47.17.86.64.9a6.11,6.11,0,0,0,.86.09c.17,0,.25,0,.25.12s-.12.18-.34.18c-1.11,0-2.14-.05-2.61-.05s-1.45.05-2.1.05c-.26,0-.34-.05-.34-.18s.08-.12.26-.12a2.08,2.08,0,0,0,.6-.09c.34-.09.42-.43.47-.94.08-.73.08-2.05.08-3.59v-1.5c0-.09,0-.09-.08-.09H68.43s-.08,0-.08.09v1.5c0,1.54,0,2.86.08,3.59,0,.47.17.86.64.9a6.27,6.27,0,0,0,.86.09c.17,0,.26,0,.26.12s-.13.17-.35.17c-1.11,0-2.13,0-2.61,0s-1.45,0-2.13,0c-.22,0-.35,0-.35-.17s.09-.12.26-.12a2,2,0,0,0,.6-.09c.34-.09.43-.43.47-.94.09-.73.09-2.06.09-3.6V13.18c0-2.57,0-3,0-3.6s-.17-.85-.72-.94a2.76,2.76,0,0,0-.64,0c-.18,0-.3,0-.3-.17s.12-.17.34-.17c.9,0,2,0,2.44,0s1.45,0,2.14,0c.25,0,.34,0,.34.17s-.09.17-.3.17a1.83,1.83,0,0,0-.47,0c-.47.09-.6.39-.65.94s0,1,0,3.6v.34c0,.09,0,.13.09.13h6.54Z"/><path d="M85.63,13.26c0-2.56,0-3,0-3.59s-.17-.86-.73-.94a2.76,2.76,0,0,0-.64-.05c-.17,0-.3,0-.3-.17s.13-.17.38-.17h1.37c.43,0,.82.05,1.07.05h4.2a6.2,6.2,0,0,1,.72-.09c.09,0,.17-.09.26-.09s.09.09.09.18a8.2,8.2,0,0,0-.13,1.11,10.17,10.17,0,0,1-.09,1.11.16.16,0,0,1-.14.18h0c-.12,0-.17-.09-.17-.26a1.74,1.74,0,0,0-.08-.6c-.13-.3-.3-.51-1.12-.6-.3,0-2-.09-2.4-.09-.08,0-.12,0-.12.17v4.28c0,.13,0,.17.12.17.39,0,2.31,0,2.7,0a1.28,1.28,0,0,0,.82-.26c.12-.12.17-.21.25-.21a.11.11,0,0,1,.13.1v0c-.06.41-.11.82-.13,1.24s-.08,1-.08,1.11,0,.3-.17.3A.15.15,0,0,1,91.2,16a0,0,0,0,1,0,0,1.54,1.54,0,0,0-.09-.6c-.09-.34-.3-.6-.94-.64-.3,0-2,0-2.4,0-.09,0-.09.08-.09.17v3.93c0,1.16.3,1.42,2,1.42A4.09,4.09,0,0,0,91.28,20a1.52,1.52,0,0,0,.77-1.24c0-.17.08-.26.17-.26s.13.13.13.3a13.18,13.18,0,0,1-.22,1.89c-.13.43-.26.43-.9.43-1.28,0-2.18-.05-2.91-.05s-1.24,0-1.75,0h-.94c-.38,0-.81,0-1.15,0s-.35,0-.35-.17.09-.13.26-.13a1.74,1.74,0,0,0,.6-.08c.34-.09.43-.43.47-.94.09-.73.09-2.06.09-3.6V13.26Z"/><path d="M113.54,13.73s.08,0,.08-.12v-.35c0-2.56,0-3,0-3.59s-.17-.86-.73-.94a2.72,2.72,0,0,0-.64,0c-.17,0-.3,0-.3-.18s.13-.17.34-.17c.9,0,2,.05,2.44.05s1.46-.05,2.14-.05c.26,0,.34.05.34.17s-.08.18-.3.18a1.87,1.87,0,0,0-.47,0c-.47.08-.6.38-.64.94s0,1,0,3.59v3c0,1.54,0,2.86.08,3.59,0,.47.17.86.65.9a6,6,0,0,0,.85.09c.17,0,.26,0,.26.12s-.13.18-.34.18c-1.12,0-2.14-.05-2.61-.05s-1.46.05-2.1.05c-.26,0-.35-.05-.35-.18s.09-.12.26-.12a2,2,0,0,0,.6-.09c.34-.09.43-.43.47-.94.09-.73.09-2.05.09-3.59v-1.5c0-.09,0-.09-.09-.09h-6.41s-.09,0-.09.09v1.5c0,1.54,0,2.86.09,3.59,0,.47.17.86.64.9a6.13,6.13,0,0,0,.85.09c.18,0,.26,0,.26.12s-.13.17-.34.17c-1.11,0-2.14,0-2.61,0s-1.46,0-2.14,0c-.21,0-.34,0-.34-.17s.08-.12.26-.12a2.08,2.08,0,0,0,.6-.09c.34-.09.42-.43.47-.94.08-.73.08-2.06.08-3.6V13.18c0-2.57,0-3,0-3.6s-.17-.85-.73-.94a2.76,2.76,0,0,0-.64,0c-.17,0-.3,0-.3-.17s.13-.17.34-.17c.9,0,2,0,2.44,0s1.46,0,2.14,0c.26,0,.34,0,.34.17s-.08.17-.3.17a1.87,1.87,0,0,0-.47,0c-.47.09-.6.39-.64.94s0,1,0,3.6v.34c0,.09,0,.13.08.13h6.55Z"/><path d="M125.69,16.73c-.09,0-.13,0-.18.13l-.9,2.4a3,3,0,0,0-.25,1c0,.3.17.52.68.52h.26c.21,0,.26,0,.26.13s-.09.17-.3.17c-.56,0-1.29-.05-1.8-.05-.17,0-1.12.05-2,.05-.22,0-.3-.05-.3-.17s.08-.13.21-.13a1.84,1.84,0,0,0,.52-.05c.76-.08,1.11-.68,1.41-1.5l4.23-10.56c.22-.48.3-.69.47-.69s.26.17.43.56c.39.94,3.08,7.78,4.2,10.35.64,1.5,1.11,1.76,1.5,1.84a4.3,4.3,0,0,0,.72.09c.13,0,.22,0,.22.13s-.17.17-.77.17-1.84,0-3.17-.05c-.3,0-.51,0-.51-.12s.08-.13.25-.18a.27.27,0,0,0,.2-.33s0,0,0-.05l-1.37-3.59c-.05-.09-.09-.13-.17-.13h-3.86Zm3.46-.86c.09,0,.09,0,.09-.08l-1.5-4.15c0-.09,0-.17-.09-.17s-.08.08-.08.17L126,15.79c0,.08,0,.13.08.13h3Z"/><path d="M139.64,13.26c0-2.56,0-3,0-3.59s-.17-.86-.73-.94a2.72,2.72,0,0,0-.64-.05c-.17,0-.3,0-.3-.17s.13-.17.39-.17c.9,0,2,.05,2.44.05.68,0,1.67-.05,2.44-.05a4.3,4.3,0,0,1,3.12.94,2.89,2.89,0,0,1,.86,2,4,4,0,0,1-3.84,4.06h-.66c-.08,0-.21,0-.21-.17s.13-.17.47-.17a2.68,2.68,0,0,0,2.27-2.78,3.28,3.28,0,0,0-1-2.53,2.39,2.39,0,0,0-1.67-.64,1.42,1.42,0,0,0-.64.09c-.08,0-.13.12-.13.3v6.76c0,1.54,0,2.86.09,3.59,0,.47.17.86.64.9a6.11,6.11,0,0,0,.86.09c.17,0,.26,0,.26.13s-.13.17-.3.17c-1.12,0-2.19-.05-2.61-.05s-1.46.05-2.14.05c-.22,0-.35-.05-.35-.17s.09-.13.26-.13a2,2,0,0,0,.6-.09c.34-.08.43-.43.47-.94.09-.73.09-2.05.09-3.59V13.27Z"/><path d="M154.6,13.26c0-2.56,0-3,0-3.59s-.17-.86-.72-.94a2.85,2.85,0,0,0-.65-.05c-.17,0-.3,0-.3-.17s.13-.17.39-.17c.9,0,2,.05,2.44.05.68,0,1.67-.05,2.44-.05a4.3,4.3,0,0,1,3.12.94,2.89,2.89,0,0,1,.86,2,4,4,0,0,1-3.84,4.06h-.66c-.08,0-.21,0-.21-.17s.13-.17.47-.17a2.68,2.68,0,0,0,2.27-2.78,3.28,3.28,0,0,0-1-2.53,2.39,2.39,0,0,0-1.67-.64,1.42,1.42,0,0,0-.64.09c-.08,0-.13.12-.13.3v6.76c0,1.54,0,2.86.09,3.59,0,.47.17.86.64.9a6.27,6.27,0,0,0,.86.09c.17,0,.26,0,.26.13s-.13.17-.3.17c-1.12,0-2.19-.05-2.61-.05s-1.46.05-2.14.05c-.22,0-.34-.05-.34-.17s.08-.13.25-.13a2,2,0,0,0,.6-.09c.34-.08.43-.43.47-.94.09-.73.09-2.05.09-3.59V13.27Z"/><path d="M164.22,14.76c0-2.87,1.93-6.59,7-6.59,4.19,0,6.8,2.44,6.8,6.29a6.7,6.7,0,0,1-6.43,6.94H171a6.47,6.47,0,0,1-6.79-6.16c0-.16,0-.31,0-.47m11.43.3c0-3.76-2.18-6.12-4.92-6.12-1.93,0-4.15,1.07-4.15,5.27,0,3.51,1.92,6.29,5.17,6.29,1.16,0,3.9-.56,3.9-5.44"/><path d="M76.29,31.51c0-.52,0-.69-.34-.69h-.22s0-.17,0-.17c.51,0,1,0,1.54,0a2.46,2.46,0,0,1,1.2.21,1,1,0,0,1,.56.9,1.06,1.06,0,0,1-.73,1c0,.08,0,.08.13.13A1.17,1.17,0,0,1,79.37,34c0,.82-.6,1.42-1.92,1.42-.22,0-.56-.05-.86-.05a5.51,5.51,0,0,0-.81.05.11.11,0,0,1,0-.17l.12-.05c.39-.08.39-.12.39-.9V31.51Zm.55.94c0,.21,0,.21.39.21.73,0,1.11-.25,1.11-.9a1,1,0,0,0-.94-1h-.13a.8.8,0,0,0-.34,0c-.09,0-.09,0-.09.17Zm0,1.67c0,.26,0,.64.18.77a.66.66,0,0,0,.55.21c.64,0,1.11-.3,1.11-1s-.3-1.24-1.41-1.24c-.38,0-.43,0-.43.17Z"/><path d="M80.56,36.77a.28.28,0,0,1,.24-.3H81a.3.3,0,0,0,.26-.13,7.82,7.82,0,0,0,.43-.81.61.61,0,0,0,.08-.3,2.11,2.11,0,0,0-.12-.51l-.56-1.54c-.13-.35-.17-.52-.43-.56l-.17,0s0-.17,0-.17.43,0,.69,0a3.44,3.44,0,0,0,.64,0s.09.12,0,.17l-.17,0c-.09,0-.17,0-.17.09.06.23.13.46.21.68l.22.64a2,2,0,0,0,.21.52,2.77,2.77,0,0,0,.26-.52l.25-.55a2.77,2.77,0,0,0,.26-.73s0-.09-.17-.13l-.21,0c-.05,0-.05-.17,0-.17.21,0,.42,0,.64,0a2.55,2.55,0,0,0,.55,0,.12.12,0,0,1,0,.17l-.12,0c-.26.05-.39.26-.6.77l-.39.82c-.26.47-.81,1.71-1.2,2.52a.51.51,0,0,1-.47.34c-.3,0-.38-.13-.38-.3"/><path d="M88,33c-.34,0-.34,0-.34.22v1c0,.77,0,.86.43.9h.21s0,.17,0,.17c-.39,0-.64,0-.9,0a5.49,5.49,0,0,0-.81,0,.11.11,0,0,1,0-.17h.12c.39-.08.43-.12.43-.9V31.64c0-.77,0-.86-.43-.9h-.17s0-.17,0-.17h1.72s0,.17,0,.17H88.1c-.43,0-.43.17-.43.9v.81c0,.21,0,.21.34.21h2.06c.34,0,.34,0,.34-.21v-.81c0-.77,0-.86-.43-.9h-.13s0-.17,0-.17h1.71s0,.17,0,.17h-.17c-.43,0-.43.17-.43.9V34.2c0,.77,0,.86.43.9h.17s0,.17,0,.17c-.34,0-.6,0-.85,0a6.12,6.12,0,0,0-.86,0,.14.14,0,0,1,0-.17H90c.43-.08.43-.12.43-.9v-1c0-.22,0-.22-.34-.22Z"/><path d="M94.23,33.82c.13,0,.13-.09.13-.22v-.34c0-.25-.09-.64-.52-.64a.42.42,0,0,0-.47.34c0,.13,0,.22-.08.26a.94.94,0,0,1-.43.13c-.09,0-.09-.05-.09-.09,0-.38.82-.9,1.33-.9s.77.3.73.86l0,1.24c0,.34,0,.64.34.64.09,0,.13,0,.18,0a.14.14,0,0,0,.08-.05s0,.05,0,.09a.74.74,0,0,1-.6.3.73.73,0,0,1-.47-.21s-.08-.09-.12-.09l-.3.13a1.07,1.07,0,0,1-.52.17.65.65,0,0,1-.72-.68c0-.3.12-.43.6-.6Zm-.43,1.24a1,1,0,0,0,.43-.17c.08-.09.08-.17.08-.34v-.43c0-.09,0-.09-.08-.09a1.71,1.71,0,0,0-.3.09c-.43.13-.64.26-.64.51a.52.52,0,0,0,.51.43"/><path d="M96.83,31.26c0-.43,0-.48-.21-.6l-.09-.05s0-.12,0-.12a4.73,4.73,0,0,0,.77-.3s0,0,.09,0v3.38c0,.08,0,.13.13.13s.3-.09.47-.3l.3-.3c.21-.22.26-.3.26-.35s0,0-.18-.08l-.17-.05c-.08,0-.08-.17,0-.17h.17c.3,0,.73,0,1.16,0,0,0,0,.13,0,.17l-.21,0a1.4,1.4,0,0,0-.48.26,5.17,5.17,0,0,0-.64.6c-.08.09-.08.13,0,.17s.26.3.47.56.51.6.69.73a1,1,0,0,0,.38.17h.09s0,.17,0,.17c-.22,0-.47,0-.69,0a3.59,3.59,0,0,0-.73,0s-.08-.17,0-.17h.13c.13,0,.17,0,.17-.09s0-.09-.13-.21l-.77-.9a.22.22,0,0,0-.21-.09c-.13,0-.13,0-.13.26v.38c0,.52,0,.6.26.64h.17s0,.18,0,.18c-.26,0-.43,0-.69,0a3.07,3.07,0,0,0-.68,0,.15.15,0,0,1,0-.18h.17c.26,0,.26-.12.26-.64V31.26Z"/><path d="M101.43,34.25c0,.51.13.81.69.81a1.12,1.12,0,0,0,.6-.21.61.61,0,0,0,.13-.43V33.26c0-.47,0-.47-.26-.55l-.09-.05a.14.14,0,0,1,0-.17,2.31,2.31,0,0,0,.86-.13s0,0,.08,0,0,.34,0,.64v1.2c0,.56,0,.77.22.77a1,1,0,0,0,.3,0,.2.2,0,0,1,0,.21,3.43,3.43,0,0,0-1,.26.14.14,0,0,1-.08-.05v-.3c0-.08,0-.08-.09-.08a1.83,1.83,0,0,1-1,.38c-.64,0-.86-.3-.86-.9V33.3c0-.47,0-.51-.21-.6l-.09,0a.14.14,0,0,1,0-.17,2.89,2.89,0,0,0,.77-.13l.09,0c0,.13,0,.26,0,.65v1.2Z"/><path d="M105,31.26c0-.43,0-.48-.22-.6l-.08-.05c-.05,0-.05-.12,0-.12s.51-.18.77-.3c0,0,0,0,.08,0,0,.26,0,.55,0,.9V32.5c0,.13,0,.17.09.17a1.37,1.37,0,0,1,.81-.26,1.34,1.34,0,0,1,1.37,1.3v.11a1.59,1.59,0,0,1-1.54,1.63h-.13a2,2,0,0,1-.6-.09c-.17,0-.26-.08-.3-.08a.21.21,0,0,0-.17.13h0s0,0-.09,0v-4.1Zm.51,3.08a1,1,0,0,0,.17.64.67.67,0,0,0,.56.26c.68,0,.94-.56.94-1.2s-.39-1.33-1.11-1.33a.69.69,0,0,0-.48.13c-.08,0-.08.13-.08.43v1.07Z"/><path d="M110.32,33.82c.13,0,.13-.09.13-.22v-.34c0-.25-.09-.64-.51-.64a.42.42,0,0,0-.47.34c0,.13,0,.22-.09.26a.94.94,0,0,1-.43.13c-.08,0-.08-.05-.08-.09,0-.38.81-.9,1.32-.9s.77.3.73.86l0,1.24c0,.34,0,.64.34.64.08,0,.13,0,.17,0a.14.14,0,0,0,.08-.05s0,.05,0,.09a.75.75,0,0,1-.6.3.68.68,0,0,1-.47-.21s-.09-.09-.13-.09l-.3.13a1.07,1.07,0,0,1-.51.17.7.7,0,0,1-.52-.17.71.71,0,0,1-.21-.51c0-.3.13-.43.6-.6Zm-.43,1.24a1,1,0,0,0,.43-.17c.09-.09.09-.17.09-.34v-.43c0-.09,0-.09-.09-.09l-.3.09c-.43.13-.64.26-.64.51a.52.52,0,0,0,.51.43"/><path d="M116,33c-.34,0-.34,0-.34.22v1c0,.77,0,.86.43.9h.21s0,.17,0,.17c-.38,0-.64,0-.9,0a5.49,5.49,0,0,0-.81,0,.14.14,0,0,1,0-.17h.13c.38-.08.42-.12.42-.9V31.64c0-.77,0-.86-.42-.9h-.17s0-.17,0-.17h1.71s0,.17,0,.17h-.13c-.43,0-.43.17-.43.9v.81c0,.21,0,.21.34.21h2.06c.34,0,.34,0,.34-.21v-.81c0-.77,0-.86-.43-.9h-.13s0-.17,0-.17h1.72s0,.17,0,.17h-.18c-.43,0-.43.17-.43.9V34.2c0,.77,0,.86.43.9h.17s0,.17,0,.17c-.34,0-.6,0-.85,0a6.12,6.12,0,0,0-.86,0,.14.14,0,0,1,0-.17H118c.43-.08.43-.12.43-.9v-1c0-.22,0-.22-.34-.22Z"/><path d="M123.44,33.86a1.45,1.45,0,0,1-1.36,1.54h-.14a1.43,1.43,0,0,1-1.46-1.4v-.1A1.51,1.51,0,0,1,122,32.36H122a1.43,1.43,0,0,1,1.42,1.42s0,.06,0,.08m-1.54-1.28c-.47,0-.81.47-.81,1.24s.3,1.37.94,1.37.81-.64.81-1.2-.25-1.41-.94-1.41"/><path d="M125.36,32.75c-.13,0-.13,0-.13.17v1.33c0,.42,0,.81.51.81a.38.38,0,0,0,.21,0,.61.61,0,0,0,.18-.09s.08.09.08.13a.94.94,0,0,1-.77.34c-.6,0-.73-.34-.73-.77V33c0-.21,0-.21-.17-.21h-.21a.21.21,0,0,1,0-.17l.47-.21a4.15,4.15,0,0,0,.3-.43.25.25,0,0,1,.17,0v.34c0,.13,0,.13.13.13h.81c.09.09.09.26,0,.3h-.81Z"/><path d="M127.73,33.48c-.17,0-.22,0-.22.21A1.2,1.2,0,0,0,128.58,35h.13a.75.75,0,0,0,.64-.35c.09,0,.13,0,.13.09a1.35,1.35,0,0,1-1.11.68,1.29,1.29,0,0,1-1-.47A1.57,1.57,0,0,1,127,34a1.51,1.51,0,0,1,1.4-1.62h.06a1,1,0,0,1,1,.85c0,.09,0,.17,0,.17s-.13,0-.43,0Zm.42-.22c.52,0,.69,0,.73-.08s0,0,0-.13-.12-.47-.55-.47a.86.86,0,0,0-.81.64s0,0,0,0h.55Z"/><path d="M131.24,34.5c0,.52,0,.6.25.65l.17,0c.05,0,.05.17,0,.17H130.3c-.05,0-.09-.13,0-.17l.17,0c.25,0,.25-.13.25-.65V31.26c0-.43,0-.48-.21-.6l-.09-.05s0-.12,0-.12a4.73,4.73,0,0,0,.77-.3c.05,0,.05,0,.09,0v4.28Z"/><path d="M139.09,34.55c0,.3,0,.47.17.51s0,.09,0,.09a1.3,1.3,0,0,0-.34.08,6.16,6.16,0,0,1-1.29.17,3,3,0,0,1-2.18-.81,2.2,2.2,0,0,1-.64-1.63,2.61,2.61,0,0,1,.64-1.71,3,3,0,0,1,2.27-.86,3.43,3.43,0,0,1,.9.13,1.57,1.57,0,0,0,.43.09,5.19,5.19,0,0,0,.13,1s-.18.08-.22,0a1.31,1.31,0,0,0-1.45-1,1.89,1.89,0,0,0-2,1.76,2.71,2.71,0,0,0,0,.29,2.19,2.19,0,0,0,1.87,2.47h.26c.43,0,.73-.08.77-.21a.65.65,0,0,0,.09-.43v-.3c0-.6,0-.64-.47-.68l-.3-.05s0-.17,0-.17c.21,0,.6.05,1,.05a4,4,0,0,0,.77-.05.14.14,0,0,1,0,.17h-.13c-.3.05-.3.26-.3.6v.48Z"/><path d="M141,33.22c0-.3,0-.3-.22-.43l-.08,0s0-.13,0-.13a6.89,6.89,0,0,0,.73-.34,0,0,0,0,1,0,0h0v.51a1.34,1.34,0,0,1,.77-.42.32.32,0,0,1,.33.31.33.33,0,0,1-.29.33c-.08,0-.13,0-.17,0a.51.51,0,0,0-.3-.13.35.35,0,0,0-.26.13c-.08.08-.08.3-.08.55v1c0,.51,0,.6.3.64H142c.05,0,.05.17,0,.17-.34,0-.55,0-.81,0a2.76,2.76,0,0,0-.64,0s-.09-.13,0-.17h.13c.25,0,.25-.13.25-.64V33.22Z"/><path d="M146.28,33.86a1.45,1.45,0,0,1-1.35,1.54h-.15a1.43,1.43,0,0,1-1.46-1.4.34.34,0,0,1,0-.1,1.51,1.51,0,0,1,1.47-1.54h.07a1.45,1.45,0,0,1,1.41,1.48v0m-1.59-1.28c-.47,0-.81.47-.81,1.24s.3,1.37.94,1.37.82-.64.82-1.2-.26-1.41-.95-1.41"/><path d="M148.16,34.25c0,.51.13.81.68.81a1.06,1.06,0,0,0,.6-.21.57.57,0,0,0,.13-.43V33.26c0-.47,0-.47-.26-.55l-.08-.05a.14.14,0,0,1,0-.17,2.23,2.23,0,0,0,.85-.13s0,0,.09,0,0,.34,0,.64v1.2c0,.56,0,.77.21.77a1,1,0,0,0,.3,0,.2.2,0,0,1,0,.21,3.46,3.46,0,0,0-.94.26.2.2,0,0,1-.09-.05v-.3c0-.08,0-.08-.08-.08a1.89,1.89,0,0,1-1,.38c-.64,0-.85-.3-.85-.9V33.3c0-.47,0-.51-.22-.6l-.08,0a.14.14,0,0,1,0-.17,2.89,2.89,0,0,0,.77-.13l.08,0c0,.13,0,.26,0,.65v1.2Z"/><path d="M151.59,33.22c0-.3,0-.3-.21-.43l0,0c-.05,0-.05-.13,0-.13s.51-.26.72-.39c.05,0,.09,0,.09.05s0,.25,0,.34,0,.09.08.09a2.35,2.35,0,0,1,1-.35,1.24,1.24,0,0,1,1.2,1.26v.07a1.68,1.68,0,0,1-1.64,1.71h-.12a1,1,0,0,1-.38,0c-.09,0-.09,0-.09.21v.77c0,.51,0,.56.26.6l.3,0c0,.05,0,.18,0,.18h-1.5s0-.13,0-.18l.17,0c.26,0,.26-.13.26-.64V33.22Zm.56,1.37a.56.56,0,0,0,.21.43.87.87,0,0,0,.52.17c.6,0,.94-.56.94-1.29a1.06,1.06,0,0,0-1-1.15h0a.88.88,0,0,0-.6.21.79.79,0,0,0-.08.43v1.2Z"/><path d="M39.72,9.14c-1.67-1.05-4.48-2.86-5.43-4.85a17.71,17.71,0,0,1-.8-2.43H31.63A19.13,19.13,0,0,0,33,5.9c.57,1,2.76,2.24,4.66,3.38a21.63,21.63,0,0,1,3.52,2.28c.34.29.67.62,1,.9V11a12.48,12.48,0,0,0-1.8-1.52c-.19-.1-.38-.19-.62-.33"/><path d="M36.05,2.62c-.1-.24-.19-.53-.28-.76h-2a11.24,11.24,0,0,0,.81,2.23c.95,1.9,3.66,3.67,5.28,4.71a7,7,0,0,0,.62.38,17.06,17.06,0,0,1,1.61,1.34V9.14c-.28-.24-.61-.53-1-.81-1.8-1.48-4.23-3.43-5.09-5.71"/><path d="M29.43,14.19a5.36,5.36,0,0,0-1.9,3.38,12.83,12.83,0,0,0-.28,2.23h2.18Z"/><path d="M35,19.85a2.18,2.18,0,0,0,1-1.67c0-1.09-1.38-2.61-2.37-3.14l-.29-.14v5.8A11.37,11.37,0,0,0,35,19.85"/><path d="M20.5,34.44c-1.14.28-2.14.47-2.71.62-1.67.33-2.76-.15-3.28-1.43a6.45,6.45,0,0,1-.1-2.19l-1.62,1.38c.05,3.09.47,5,.85,5S17,37,18.69,36.29a26,26,0,0,1,2.85-1c1.38-.43,6.19-1.62,9.8-2.47l-.57-.53a16.18,16.18,0,0,1-1.61.24c-2.05.34-5.86,1.24-8.66,1.9"/><path d="M15.09,24.06h-.47v4.19c.1-1.34.24-2.62.38-3.38,0-.15.05-.43.1-.81"/><path d="M35.15,32.09a21.54,21.54,0,0,1,3-.24,7.07,7.07,0,0,1,4,.9V31.56A9.68,9.68,0,0,0,38.29,31a43.05,43.05,0,0,0-4.56.81,2.79,2.79,0,0,0-.39.1v.57c.86-.19,1.48-.34,1.81-.38"/><path d="M14.57,19.79h1.09c.62-4.89,1.57-12.22,2.24-17.94H16.23C16,3.09,15.9,4.19,15.8,5c-.18,1.9-.61,4.19-1,6.24a14,14,0,0,0-.23,1.42l0,.05V19.8Z"/><path d="M40.91,11.85a21.26,21.26,0,0,0-3.48-2.24c-2.09-1.19-4.18-2.42-4.8-3.52a24.42,24.42,0,0,1-1.38-4.24H29.72A8.72,8.72,0,0,1,30.06,3v.1a27.77,27.77,0,0,0,2.71,5.66,1.78,1.78,0,0,0,.62.57h0a15.5,15.5,0,0,0,2.66,1.28,18.35,18.35,0,0,1,2.38,1.1,12.65,12.65,0,0,1,3.71,3.43V13l-.1-.1c-.42-.38-.8-.76-1.14-1.05"/><path d="M39.57,25.3c.52-.05,1-.1,1.67-.19.28-.05.61-.05.9-.1V23a36.19,36.19,0,0,1-3.62,1.28h-.1l-2.09.67c-.91.33-1.9.66-2.9.95v.81a53.26,53.26,0,0,1,6.13-1.38"/><path d="M35.1,11.58l1,.43c1.62.71,3.86,2.76,6,5.42l0,.05v-1.9a13,13,0,0,0-3.85-3.71,23.09,23.09,0,0,0-2.33-1,15.77,15.77,0,0,1-2.53-1.19v1.19a8.52,8.52,0,0,0,1.62.76"/><path d="M23.44,18.18c.33-2,1.33-6.43,1.38-6.62.71-3.14,2.71-6.13,3.71-6.13.57,0,1.09.8,2.19,2.71.38.62.71,1.23,1,1.57a2.63,2.63,0,0,0,.67.57l.85-.71A2.61,2.61,0,0,1,32.57,9a26.76,26.76,0,0,1-2.76-5.76v-.1c-.1-.33-.24-.76-.38-1.19h-3a24.93,24.93,0,0,0-2.52,6.62c0,.1-1.62,8.47-2.05,11.32h1.38a8.36,8.36,0,0,1,.19-1.66"/><path d="M25.06,27.25a5.46,5.46,0,0,1-2.38-3.14H21.4a4,4,0,0,0,1,2.85,6,6,0,0,0,5.29,1.38c.33-.1.95-.24,1.71-.43V27a16.65,16.65,0,0,1-3.28.48,5.14,5.14,0,0,1-1.1-.24"/><path d="M33.58,12.81l1.57.47a11.63,11.63,0,0,1,3.52,3.14c.9,1.19,1.62,3.09,1.38,3.71A4.29,4.29,0,0,1,38.1,21.9c-.52.23-2.71,1.09-4.66,1.8v1.43c.9-.29,1.8-.57,2.66-.86s1.48-.48,2.1-.71l.1,0a29.29,29.29,0,0,0,3.84-1.38V18.61l-.61-.76c-2.05-2.57-4.24-4.57-5.76-5.23-.29-.15-.62-.29-1-.43a12.32,12.32,0,0,1-1.38-.62v1.09c0,.1.09.15.14.15"/><path d="M25.91,24.82a1.43,1.43,0,0,1-.85-.71H23.39a4.52,4.52,0,0,0,1.95,2.47c.67.29,2.52,0,4.09-.38V25a10.86,10.86,0,0,1-1.28.1,7.7,7.7,0,0,1-2.24-.29"/><path d="M31.09,10.14c-.36-.54-.69-1.1-1-1.67a9.94,9.94,0,0,0-1.52-2.33c-.52.14-2.28,2.43-3,5.57h0s-1.09,4.61-1.38,6.56c-.1.48-.19,1-.28,1.53h1.38c.14-.86.28-1.86.47-2.95s.34-2.05.43-2.62a5.81,5.81,0,0,1,2.33-3.9c.57-.29,1.53.52,2.34,1.24l.95-.81a1.88,1.88,0,0,1-.72-.62"/><path d="M7.71,34.55A28.88,28.88,0,0,0,8,31.61c0-1.42,0-4.22.1-6.69,0-1.9.1-3.56.1-4.22,0-1.47-.43-8.07-.57-9.4a10,10,0,0,1,1-3.8c.14-.43.33-.81.42-1.14a41.17,41.17,0,0,0,1.14-4.5H8.85A40.08,40.08,0,0,1,6.28,8.79l-.1.14a4.47,4.47,0,0,0-.71,3.8,11.21,11.21,0,0,0,.47,1.38,9.5,9.5,0,0,1,.76,4.08c0,1.56,0,3.13-.1,4.79s-.14,3.51-.1,5.41c0,1.71,0,3.37,0,4.84a36.26,36.26,0,0,0,0,4.17c.1.76.23,1.52.38,2.23a17.93,17.93,0,0,1,.39,2.51h.86c-.19-1.09-.33-2.32-.47-3.65a11.85,11.85,0,0,1,.1-3.94"/><path d="M4,26.72c-.1-1.71-.1-3.51-.1-5.12a47.11,47.11,0,0,0-.19-5.18c-.1-.56-.29-1.28-.48-2-.43-1.61-1-3.42-.71-4.6a15.12,15.12,0,0,1,1.81-3.7A43.37,43.37,0,0,0,6.57,1.86H5.19A26.18,26.18,0,0,1,2.05,7.65c0,.09-.15.14-.19.19v8.87A1.57,1.57,0,0,0,2,17a39.85,39.85,0,0,1,1,9.16c0,1.28,0,2.33,0,3.28,0,1.52,0,2.84,0,4.27a37.71,37.71,0,0,1-.76,4.6C2.1,39,2,39.58,1.86,40.15v2H3.29c0-.29.1-.52.14-.81A30.33,30.33,0,0,0,4,37.82a79.08,79.08,0,0,0,0-11.1"/><path d="M6,37.4C6,36,6,34.58,6,33.18s.1-3.14,0-4.84c0-1.9,0-3.66.1-5.41s.14-3.23.1-4.8a9.5,9.5,0,0,0-.71-3.94,13,13,0,0,1-.48-1.42,5.08,5.08,0,0,1,.76-4.08l0-.14A38.16,38.16,0,0,0,8.42,1.76H7.33A40.72,40.72,0,0,1,5,6.41,19.5,19.5,0,0,0,3.19,9.88a11.75,11.75,0,0,0,.71,4.27c.19.76.43,1.47.52,2.09a44,44,0,0,1,.24,5.26c0,1.62,0,3.42.1,5.08a76.84,76.84,0,0,1,0,11.15c-.14,1.19-.38,2.42-.57,3.61L4.05,42H6.81a12.72,12.72,0,0,0-.38-2.46,11.17,11.17,0,0,1-.38-2.14"/><path d="M21.69,36c-.71.23-1.7.61-2.79,1-3,1.14-4.83,1.8-5.54,1.57s-1.23-2-1.33-5.14l-1,.9c-.14,1.9-.24,3.52-.24,4.14V39c0,1.15,0,2.76.33,3s3.5-1,5.78-2.24c.62-.33,1.14-.66,1.7-.95a17.16,17.16,0,0,1,3.27-1.62c1.61-.52,7.81-2.19,9.75-2.61l.43-.1c.23,0,.52-.15.8-.19l-.9-.81c-3.5.76-8.62,2-10.23,2.52"/><path d="M14.1,11.13c.38-2,.81-4.32,1-6.18.1-.81.24-1.9.43-3.09H14.24c-.1.57-.19,1.09-.28,1.52s-.24,1-.38,1.52c-.43,1.76-.9,3.76-1.29,5.81l1.62,1.42a8.8,8.8,0,0,1,.19-1"/><path d="M37.05,33.74a5.9,5.9,0,0,1,3,.62,7.26,7.26,0,0,1,2.19,1.86V33.74l0-.05c-1.52-1.47-5.09-1-6.8-.85-.38,0-1,.14-1.85.33v1a17.16,17.16,0,0,1,3.57-.43"/><path d="M9.11,41.24a33.78,33.78,0,0,1-.1-5.6c.05-.66.05-1.37.05-2,0-1.14.14-3,.24-4.93.14-2.66.33-5.41.33-6.93,0-.81,0-1.85-.05-2.94,0-2.52,0-5.37.05-7.08a31.48,31.48,0,0,1,1-5.07,29,29,0,0,0,.9-3.9,5,5,0,0,0,.1-.94H10.45A43.83,43.83,0,0,1,9.3,6.51c-.14.33-.28.75-.42,1.18a9.87,9.87,0,0,0-1,3.61c.15,1.37.58,7.92.58,9.44,0,.67-.05,2.33-.1,4.22-.05,2.47-.1,5.22-.1,6.7,0,1-.11,2-.24,3a17,17,0,0,0-.14,3.84c.1.95.24,2.42.48,3.7h.95c0-.1,0-.19,0-.29a5,5,0,0,1-.18-.66"/><path d="M3.24,1.86A13.49,13.49,0,0,1,1.9,4.23l0,.06v3A26.67,26.67,0,0,0,4.81,1.86Z"/><path d="M10.54,9.26l1.38,1.19c.38-2,.86-3.94,1.28-5.6.15-.53.24-1,.38-1.52s.19-.91.29-1.43H12.11a8.47,8.47,0,0,0-.1,1c-.19,1.14-.53,2.52-.9,3.94a26.42,26.42,0,0,0-1,5c-.1,1.67-.05,4.51-.05,7,0,1.09.05,2.13.05,3,0,1.52-.14,4.27-.33,6.92-.1,2-.24,3.85-.24,4.94,0,.62-.05,1.28-.05,2a28.88,28.88,0,0,0,.05,5.5c0,.24.1.43.14.67s0,.23.1.33h1.09c-.33-.48-.33-1.57-.33-3.18v-.48c0-.56.1-2,.19-3.8l0,.05V9.26Z"/><path d="M33.87,14.76c1,.47,2.61,2.14,2.57,3.47a2.33,2.33,0,0,1-1.24,1.95c-.05.05-.86.48-1.76,1v2.19c1.89-.72,4-1.53,4.47-1.77A3.94,3.94,0,0,0,39.67,20a6.31,6.31,0,0,0-1.34-3.38,10.29,10.29,0,0,0-3.33-3,14.36,14.36,0,0,0-1.57-.48h0v1.38a3.58,3.58,0,0,1,.48.24"/><path d="M27.14,17.48c.34-1.72,1.29-3.29,2.24-3.71v-1l1.09-1c-.52-.48-1.33-1.15-1.76-1.15a.24.24,0,0,0-.14.05,5.51,5.51,0,0,0-2.09,3.62c-.1.57-.24,1.57-.43,2.66s-.33,1.95-.48,2.86h1.29c.05-.76.19-1.57.28-2.33"/><path d="M25.53,24.06a1.43,1.43,0,0,0,.52.39,9,9,0,0,0,3.38.19v-.58Z"/><path d="M33.89,41.91c-1.14-.86-3.9-.67-6.09-.15-.37.11-.73.24-1.09.38h7.42c-.1-.1-.14-.19-.24-.23"/><path d="M41.57,1.86H40.19a15.32,15.32,0,0,0,2,3.09V3.14A3.54,3.54,0,0,0,42,2.81c-.1-.24-.23-.57-.38-.95"/><path d="M36.15,39c-.71-.33-5.43.43-7.47,1a38.14,38.14,0,0,0-5.38,2.19h1.43a19.44,19.44,0,0,1,2.85-1c2.34-.57,5.29-.81,6.71.23a4,4,0,0,1,.72.81h2.57c0-.1,0-.19,0-.28-.29-1.62-.62-2.52-1.38-2.86"/><path d="M32.68,37.48l-1,.14a57.52,57.52,0,0,0-9.14,3.1,29.74,29.74,0,0,0-2.76,1.42h2.71a44.86,44.86,0,0,1,6.19-2.52c1.9-.47,6.8-1.38,7.71-.95s1.24,1.38,1.57,3.09a1.64,1.64,0,0,0,.1.38H40c-.33-2.14-.71-4.09-1.43-4.75s-3.9-.24-5.9.1"/><path d="M33.2,34.58c-.38.1-.76.14-1.1.24l-.42.1c-1.95.42-8.14,2.09-9.76,2.57a18.36,18.36,0,0,0-3.23,1.61c-.53.34-1.1.62-1.72,1a34.23,34.23,0,0,1-4.76,2.1h3.95a10.73,10.73,0,0,0,1.1-.62c.57-.38,1-.67,1.38-.95a12.64,12.64,0,0,1,3.09-1.77c2.1-.9,10.42-3,11.61-3.28a14.57,14.57,0,0,1,2.95-.24,8.56,8.56,0,0,1,3.14.43c1.38.62,2.33,2.47,2.71,5v-3.9a6.53,6.53,0,0,0-2.33-2.19c-1.66-.9-4.33-.57-6.37-.14v.19Z"/><path d="M1.86,1.86v1.8a13.43,13.43,0,0,0,1-1.8Z"/><path d="M22.21,27.2A4.15,4.15,0,0,1,21,24.1H19.54a11.83,11.83,0,0,0,.1,2.38A4.24,4.24,0,0,0,24.3,30.1a42.64,42.64,0,0,0,5.14-1v-.9l-1.61.42a6.45,6.45,0,0,1-5.62-1.47"/><path d="M23.5,8.42a26.07,26.07,0,0,1,2.42-6.57H22.83c-.71,3.72-3,17.66-3,17.8v.15h1.62c.38-2.76,1.95-11,2-11.38"/><path d="M38.1,27.15a3.35,3.35,0,0,0,.71,0c.57-.05,1.33-.05,2.1-.05.41,0,.82,0,1.23.05V25.39c-.28.05-.57.05-.85.1-.57.05-1.14.14-1.67.19a46.5,46.5,0,0,0-6.18,1.42v1c2.28-.53,4.09-1,4.66-1"/><path d="M41.91,41.72c-.24-2.9-1.24-5-2.62-5.67s-4.76-.43-5.85-.19S24,38.24,21.92,39.15a13.12,13.12,0,0,0-3,1.76c-.38.28-.86.62-1.38,1a5.21,5.21,0,0,1-.52.28h2.05c1.09-.61,2.52-1.38,3.37-1.76,1.19-.52,7-2.8,9.24-3.14l1-.14a35.69,35.69,0,0,1,4.14-.48,3.13,3.13,0,0,1,2,.48c.8.76,1.19,2.76,1.57,5H42Z"/><path d="M2.62,33.63c.1-1.38,0-2.72,0-4.19,0-1,0-2.05,0-3.28a42.4,42.4,0,0,0-.76-7.95v20h0c.33-1.76.66-3.47.76-4.61"/><path d="M39.91,5.09a22,22,0,0,1-2.29-3.23H36.14c.1.23.15.42.24.66.81,2.14,3.19,4.09,4.95,5.52l.76.62v-1c-.53-.54-1-1.12-1.52-1.71a7.44,7.44,0,0,0-.66-.9"/><path d="M38.48,1.86a21.53,21.53,0,0,0,2,2.76c.24.28.48.61.71.9a9,9,0,0,0,1,1.09V5.52a15.49,15.49,0,0,1-2.34-3.66Z"/><path d="M40,29a4.91,4.91,0,0,1,.86.05,8.76,8.76,0,0,1,1.24.24V27.43a24.65,24.65,0,0,0-3.33.05c-.29,0-.53.05-.72.05a42,42,0,0,0-4.71,1V30A36.69,36.69,0,0,1,40,29"/><path d="M19.26,26.53a12.09,12.09,0,0,1-.1-2.48H17.4c-.07.54-.12,1.08-.14,1.62v0c-.14,2-.33,4.66.71,5.19s6.48.8,8.76.52a25.09,25.09,0,0,0,2.71-.57V29.48a42.64,42.64,0,0,1-5.14.95,4.57,4.57,0,0,1-5-3.9"/><path d="M19.46,19.6c.05-.14,2.29-13.94,3-17.74h-2.1c-.19,1.42-.38,2.57-.43,3-.19,1-1.23,9.09-2,14.94h1.53V19.6"/><path d="M42,1.86c0,.14.15.28.19.42V1.86Z"/><path d="M33.72,31.42a45.08,45.08,0,0,1,4.62-.81h.33a13.12,13.12,0,0,1,3.47.57V29.66a6.08,6.08,0,0,0-1.28-.28,27.72,27.72,0,0,0-7.42.95v1.14c.1,0,.19,0,.28,0"/><path d="M19.56,4.81c.1-.43.24-1.57.43-2.95H18.23C17.51,7.57,16.61,14.94,16,19.8h1.57c.76-5.86,1.81-13.95,2-15"/><path d="M17.79,31.23c-1.24-.62-1.05-3.33-.9-5.52v-.05c0-.28.1-.86.14-1.62H15.41a6.19,6.19,0,0,1-.15.86c-.33,2.24-.81,7.85-.47,8.57s.9,1.61,2.9,1.23c.57-.14,1.57-.33,2.71-.62,2.81-.66,6.66-1.52,8.66-1.8.38-.05.86-.15,1.28-.19l-.95-.81h0c-1.14.23-2,.47-2.66.52-2.38.29-7.76.05-8.95-.57"/><path d="M44,44H0V0H44ZM.76,43.24H43.29V.76H.76Z"/></svg>