<svg xmlns="http://www.w3.org/2000/svg" width="120" height="28" viewBox="0 0 120 28"><defs><style>.a{fill:#fff;}</style></defs><path class="a" d="M5.11,1.54l-2.67.05c-1.06,0-1.52.14-1.75.55a2,2,0,0,0-.32.65C.32,2.93.28,3,.18,3S0,2.88,0,2.7A20.15,20.15,0,0,1,.37.62C.41.39.46.3.6.3s.32.14.78.19,1.2.09,1.8.09h7.18A7.78,7.78,0,0,0,11.6.49c.28,0,.42-.1.51-.1s.14.1.14.37-.05,1.61-.05,2.12c0,.18,0,.28-.18.28s-.19-.1-.19-.37V2.6c0-.46-.5-1-2.11-1L7.41,1.54V9c0,1.66,0,3.09.1,3.87,0,.51.18.92.69,1a7,7,0,0,0,.92.09c.18,0,.27.05.27.14s-.13.18-.32.18c-1.2,0-2.35,0-2.85,0s-1.57,0-2.31,0c-.23,0-.36,0-.36-.18s.09-.14.27-.14a2.4,2.4,0,0,0,.65-.09c.36-.09.46-.46.5-1,.1-.79.1-2.21.1-3.87V1.54Z"/><path class="a" d="M24.64,6.29s.09,0,.09-.14V5.78c0-2.76,0-3.27-.05-3.87S24.5,1,23.9.9a2.82,2.82,0,0,0-.69-.05c-.19,0-.32,0-.32-.18s.13-.18.36-.18c1,0,2.12,0,2.63,0s1.56,0,2.3,0c.28,0,.37,0,.37.18s-.09.18-.32.18a1.91,1.91,0,0,0-.51.05c-.51.09-.64.41-.69,1S27,3,27,5.78V9c0,1.66,0,3.08.1,3.87,0,.5.18.92.69,1a5.62,5.62,0,0,0,.92.09c.18,0,.27,0,.27.14s-.13.19-.36.19c-1.2,0-2.31-.05-2.81-.05s-1.57.05-2.26.05c-.28,0-.37-.05-.37-.19s.09-.14.28-.14a2,2,0,0,0,.64-.09c.37-.09.46-.46.51-1,.09-.78.09-2.21.09-3.87V7.3c0-.09,0-.09-.09-.09H17.68s-.09,0-.09.09V8.91c0,1.66,0,3.09.09,3.87.05.51.19.92.69,1a7.34,7.34,0,0,0,.92.09c.19,0,.28,0,.28.14s-.14.18-.37.18c-1.2,0-2.3,0-2.81,0s-1.56,0-2.3,0c-.23,0-.37,0-.37-.18s.09-.14.28-.14a2.37,2.37,0,0,0,.64-.09c.37-.1.46-.46.51-1,.09-.78.09-2.21.09-3.86V5.69c0-2.76,0-3.27,0-3.87S15,.9,14.41.81a2.82,2.82,0,0,0-.69-.05c-.18,0-.32,0-.32-.18s.14-.19.37-.19c1,0,2.12,0,2.62,0s1.57,0,2.31,0c.27,0,.36,0,.36.19s-.09.18-.32.18a2,2,0,0,0-.51.05c-.5.09-.64.41-.69,1s0,1.11,0,3.87v.37c0,.09,0,.13.09.13h7.05Z"/><path class="a" d="M32,5.78c0-2.76,0-3.27-.05-3.87s-.18-.92-.78-1a2.82,2.82,0,0,0-.69-.05c-.19,0-.32,0-.32-.18s.13-.18.41-.18H32c.46,0,.88,0,1.15,0h4.52c.32,0,.64-.09.78-.09s.18-.09.28-.09.09.09.09.18a10.64,10.64,0,0,0-.14,1.2c0,.18,0,1-.09,1.2a.17.17,0,0,1-.19.18c-.13,0-.18-.09-.18-.28a1.84,1.84,0,0,0-.09-.64c-.14-.32-.32-.55-1.2-.65-.28,0-2.21,0-2.58,0-.09,0-.14,0-.14.18V6.29c0,.14,0,.18.14.18.42,0,2.49,0,2.9,0a1.47,1.47,0,0,0,.88-.28c.14-.14.18-.23.27-.23s.14,0,.14.14a12.57,12.57,0,0,0-.14,1.33c0,.37-.09,1.11-.09,1.2s0,.32-.18.32a.17.17,0,0,1-.19-.18,1.73,1.73,0,0,0-.09-.65c-.09-.37-.32-.64-1-.69-.32,0-2.12,0-2.58,0-.09,0-.09.09-.09.18v4.24c0,1.24.32,1.52,2.16,1.52A4.42,4.42,0,0,0,38,13.06a1.58,1.58,0,0,0,.82-1.34c0-.18.1-.28.19-.28s.14.14.14.33a14.68,14.68,0,0,1-.23,2c-.14.46-.28.46-1,.46-1.38,0-2.35,0-3.13,0s-1.34-.05-1.89-.05H32c-.42,0-.88.05-1.25.05s-.36-.05-.36-.19.09-.14.27-.14a2.05,2.05,0,0,0,.65-.09c.36-.09.46-.46.5-1,.09-.78.09-2.21.09-3.87V5.78Z"/><path class="a" d="M59.08,6.29c.05,0,.09,0,.09-.14V5.78c0-2.76,0-3.27,0-3.87s-.19-.92-.79-1a2.82,2.82,0,0,0-.69-.05c-.18,0-.32,0-.32-.18s.14-.18.37-.18c1,0,2.12,0,2.62,0s1.57,0,2.3,0c.28,0,.37,0,.37.18s-.09.18-.32.18a2,2,0,0,0-.51.05c-.5.09-.64.41-.69,1s0,1.11,0,3.87V9c0,1.66,0,3.08.09,3.87,0,.5.18.92.69,1a5.73,5.73,0,0,0,.92.09c.19,0,.28,0,.28.14s-.14.19-.37.19c-1.2,0-2.3-.05-2.81-.05s-1.57.05-2.26.05c-.27,0-.36-.05-.36-.19s.09-.14.27-.14a2.05,2.05,0,0,0,.65-.09c.36-.09.46-.46.5-1,.1-.78.1-2.21.1-3.87V7.3c0-.09-.05-.09-.1-.09h-6.9c-.05,0-.1,0-.1.09V8.91c0,1.66,0,3.09.1,3.87,0,.51.18.92.69,1a7,7,0,0,0,.92.09c.18,0,.27,0,.27.14s-.13.18-.36.18c-1.2,0-2.31,0-2.81,0s-1.57,0-2.31,0c-.23,0-.36,0-.36-.18s.09-.14.27-.14a2.4,2.4,0,0,0,.65-.09c.37-.1.46-.46.5-1,.1-.78.1-2.21.1-3.86V5.69c0-2.76,0-3.27,0-3.87s-.18-.92-.78-1a2.82,2.82,0,0,0-.69-.05c-.19,0-.33,0-.33-.18s.14-.19.37-.19c1,0,2.12,0,2.63,0s1.56,0,2.3,0c.28,0,.37,0,.37.19s-.09.18-.33.18a1.88,1.88,0,0,0-.5.05c-.51.09-.65.41-.69,1s-.05,1.11-.05,3.87v.37c0,.09.05.13.09.13h7Z"/><path class="a" d="M69.67,9.51c-.09,0-.14.05-.18.14l-1,2.58a3.29,3.29,0,0,0-.28,1.1c0,.32.19.55.74.55h.28c.23,0,.27,0,.27.14s-.09.19-.32.19c-.6,0-1.38-.05-1.93-.05-.19,0-1.2.05-2.12.05-.23,0-.32-.05-.32-.19s.09-.14.23-.14a2.37,2.37,0,0,0,.55,0c.83-.09,1.2-.74,1.52-1.61L71.7.85c.23-.5.32-.73.5-.73s.28.18.46.6c.42,1,3.32,8.38,4.52,11.14.69,1.61,1.19,1.89,1.61,2a5.84,5.84,0,0,0,.78.09c.14,0,.23,0,.23.14s-.18.18-.83.18-2,0-3.41,0c-.32,0-.55,0-.55-.14s.09-.14.28-.19a.28.28,0,0,0,.18-.41L74,9.6c0-.09-.09-.14-.19-.14H69.67Zm3.68-.92c.1,0,.1-.05.1-.09L71.83,4c0-.09,0-.18-.09-.18s-.09.09-.09.18L70,8.45c0,.09,0,.14.09.14Z"/><path class="a" d="M82.84,5.78c0-2.76,0-3.27,0-3.87S82.61,1,82,.9a2.82,2.82,0,0,0-.69-.05c-.18,0-.32,0-.32-.18s.14-.18.41-.18c1,0,2.12,0,2.63,0,.73,0,1.79,0,2.62,0A4.57,4.57,0,0,1,90,1.5a3.05,3.05,0,0,1,.92,2.16A4.25,4.25,0,0,1,86.48,8h-.37c-.09,0-.23,0-.23-.19s.14-.18.51-.18a2.87,2.87,0,0,0,2.44-3A3.51,3.51,0,0,0,87.77,2,2.61,2.61,0,0,0,86,1.27a1.5,1.5,0,0,0-.69.09c-.09,0-.14.14-.14.32V9c0,1.66,0,3.08.09,3.87,0,.5.19.92.69,1a5.86,5.86,0,0,0,.93.09c.18,0,.27,0,.27.14s-.14.19-.32.19c-1.2,0-2.35-.05-2.81-.05s-1.56.05-2.3.05c-.23,0-.37-.05-.37-.19s.09-.14.28-.14a2,2,0,0,0,.64-.09c.37-.09.46-.46.51-1,.09-.78.09-2.21.09-3.87Z"/><path class="a" d="M94.81,5.78c0-2.76,0-3.27,0-3.87S94.58,1,94,.9a2.82,2.82,0,0,0-.69-.05c-.18,0-.32,0-.32-.18s.14-.18.41-.18c1,0,2.12,0,2.63,0,.74,0,1.8,0,2.62,0a4.63,4.63,0,0,1,3.37,1,3.09,3.09,0,0,1,.92,2.16A4.26,4.26,0,0,1,98.45,8h-.37c-.09,0-.23,0-.23-.19s.14-.18.51-.18a2.87,2.87,0,0,0,2.44-3A3.51,3.51,0,0,0,99.74,2a2.61,2.61,0,0,0-1.8-.69,1.52,1.52,0,0,0-.69.09c-.09,0-.14.14-.14.32V9c0,1.66,0,3.08.1,3.87,0,.5.18.92.69,1a5.62,5.62,0,0,0,.92.09c.18,0,.27,0,.27.14s-.13.19-.32.19c-1.2,0-2.35-.05-2.81-.05s-1.56.05-2.3.05c-.23,0-.37-.05-.37-.19s.09-.14.28-.14a2,2,0,0,0,.64-.09c.37-.09.46-.46.51-1,.09-.78.09-2.21.09-3.87Z"/><path class="a" d="M105.17,7.39c0-3.08,2.07-7.09,7.51-7.09C117.19.3,120,2.93,120,7.07a7.2,7.2,0,0,1-7.51,7.46,7,7,0,0,1-7.32-7.14m12.25.32c0-4-2.35-6.58-5.29-6.58-2.08,0-4.47,1.15-4.47,5.66,0,3.78,2.07,6.77,5.57,6.77,1.24,0,4.19-.6,4.19-5.85"/><path class="a" d="M23.07,21.81c0-.56-.05-.74-.37-.74h-.23c0-.05,0-.19,0-.19.42,0,.92,0,1.66,0a2.62,2.62,0,0,1,1.29.23,1.05,1.05,0,0,1,.6,1c0,.55-.33.82-.79,1.05,0,.1.05.1.14.14a1.27,1.27,0,0,1,1,1.29c0,.88-.65,1.52-2.08,1.52-.23,0-.6,0-.92,0a6,6,0,0,0-.87,0,.13.13,0,0,1,0-.18l.14-.05c.41-.09.41-.14.41-1Zm.64,1c0,.23,0,.23.42.23.78-.05,1.2-.28,1.2-1A1,1,0,0,0,24.17,21a.7.7,0,0,0-.36.05c-.1,0-.1,0-.1.18Zm0,1.79c0,.28,0,.69.19.83a.7.7,0,0,0,.6.23c.69,0,1.19-.32,1.19-1.06,0-.59-.32-1.33-1.52-1.33-.41,0-.46,0-.46.18Z"/><path class="a" d="M27.12,27.47a.29.29,0,0,1,.32-.32h.14a.34.34,0,0,0,.28-.14,7.85,7.85,0,0,0,.46-.88.61.61,0,0,0,.09-.32,1.91,1.91,0,0,0-.14-.55l-.64-1.61c-.14-.37-.19-.56-.46-.6L27,23s0-.18.05-.18.46,0,.74,0a4.29,4.29,0,0,0,.69,0s.09.14,0,.18l-.19.05c-.09,0-.18,0-.18.09a6.07,6.07,0,0,0,.23.74l.23.69c.05.14.18.55.23.55s.14-.28.28-.55l.27-.6a3,3,0,0,0,.28-.78c0-.05-.05-.1-.19-.14L29.19,23s0-.18,0-.18c.23,0,.46,0,.69,0a3.23,3.23,0,0,0,.6,0,.13.13,0,0,1,0,.18l-.13.05c-.28,0-.42.27-.65.83l-.41.87c-.28.51-.88,1.84-1.29,2.72a.57.57,0,0,1-.51.37c-.28-.05-.37-.19-.37-.37"/><path class="a" d="M34.26,23.37c-.37,0-.37,0-.37.23v1.11c0,.82,0,.92.46,1h.23c.05,0,.05.19,0,.19-.41,0-.69-.05-1-.05a4.85,4.85,0,0,0-.87.05.14.14,0,0,1,0-.19h.14c.41-.09.46-.14.46-1V21.94c0-.83-.05-.92-.46-1h-.19c0-.05,0-.19,0-.19h1.85s0,.19,0,.19H34.4c-.46,0-.46.18-.46,1v.88c0,.23,0,.23.37.23h2.21c.36,0,.36,0,.36-.23v-.88c0-.83,0-.92-.46-1h-.13c0-.05,0-.19,0-.19h1.84s0,.19,0,.19h-.19c-.46,0-.46.18-.46,1v2.77c0,.82,0,.92.46,1h.19s0,.19,0,.19c-.37,0-.65-.05-.92-.05a5.62,5.62,0,0,0-.92.05.14.14,0,0,1,0-.19h.13c.46-.09.46-.14.46-1V23.6c0-.23,0-.23-.36-.23Z"/><path class="a" d="M40.29,24.29c.14,0,.14-.09.14-.23v-.37c0-.27-.09-.69-.55-.69a.46.46,0,0,0-.51.37c0,.14,0,.23-.09.28a.91.91,0,0,1-.46.14c-.09,0-.09-.05-.09-.1,0-.41.87-1,1.42-1s.83.32.79.92V25c0,.37,0,.69.36.69.1,0,.14,0,.19,0s.09-.05.09-.05.05.05.05.09A.8.8,0,0,1,41,26a.75.75,0,0,1-.5-.23c0-.05-.1-.1-.14-.1s-.14.1-.32.14a1.21,1.21,0,0,1-.56.19.73.73,0,0,1-.55-.19.75.75,0,0,1-.23-.55c0-.32.14-.46.64-.65Zm-.46,1.34a1,1,0,0,0,.46-.19c.09-.09.09-.18.09-.37v-.46c0-.09,0-.09-.09-.09a3,3,0,0,0-.32.09c-.46.14-.69.28-.69.56a.55.55,0,0,0,.55.46"/><path class="a" d="M42.55,21.53c0-.46,0-.51-.23-.65l0,0c0-.05,0-.14,0-.14a5.07,5.07,0,0,0,.83-.32s0,0,.09,0v3.64c0,.09,0,.14.14.14s.32-.09.51-.32l.32-.33c.23-.23.28-.32.28-.36s0-.05-.19-.1l-.18,0c-.09-.05-.09-.19,0-.19h.14c.32,0,.78,0,1.24,0,0,0,0,.14,0,.18l-.23.05a1.33,1.33,0,0,0-.51.27A5.06,5.06,0,0,0,44,24c-.09.09-.09.14,0,.18.13.19.27.33.5.6a10.31,10.31,0,0,0,.74.78,1.11,1.11,0,0,0,.41.19h.1c0,.05,0,.18,0,.18-.23,0-.51,0-.74,0a4.25,4.25,0,0,0-.78,0c-.05,0-.1-.18,0-.18h.13c.14,0,.19,0,.19-.09s-.05-.1-.14-.23l-.83-1a.26.26,0,0,0-.23-.09c-.14,0-.14,0-.14.27V25c0,.55,0,.64.28.69h.18c.05.05.05.18,0,.18-.27,0-.46,0-.73,0a4.29,4.29,0,0,0-.74,0,.13.13,0,0,1,0-.18h.18c.28,0,.28-.14.28-.69v-3.5Z"/><path class="a" d="M47,24.75c0,.55.14.88.74.88a1.19,1.19,0,0,0,.65-.23.63.63,0,0,0,.13-.46V23.65c0-.51,0-.51-.27-.6L48.17,23a.13.13,0,0,1,0-.18,2.66,2.66,0,0,0,.92-.14s0,.05.09.05,0,.36,0,.69v1.29c0,.59,0,.82.23.82a1.05,1.05,0,0,0,.33,0,.24.24,0,0,1,0,.23,3.75,3.75,0,0,0-1,.28s-.09-.05-.09-.05v-.32c0-.1,0-.1-.09-.1a2,2,0,0,1-1.06.42c-.69,0-.92-.32-.92-1V23.69c0-.5,0-.55-.23-.64L46.19,23a.13.13,0,0,1,0-.18,2.85,2.85,0,0,0,.82-.14.17.17,0,0,1,.1.05,6.87,6.87,0,0,0,0,.69v1.33Z"/><path class="a" d="M50.28,21.53c0-.46,0-.51-.23-.65l-.09,0c0-.05,0-.14,0-.14s.55-.18.83-.32c.05,0,.05,0,.09,0,0,.28,0,.6,0,1v1.47c0,.14,0,.19.09.19a1.5,1.5,0,0,1,.87-.28,1.44,1.44,0,0,1,1.48,1.52A1.71,1.71,0,0,1,51.48,26a1.94,1.94,0,0,1-.64-.09,3.06,3.06,0,0,0-.33-.09.24.24,0,0,0-.18.14h0s0,0-.09-.05V21.53Zm.6,3.31a1.08,1.08,0,0,0,.19.69.66.66,0,0,0,.6.28c.73,0,1-.6,1-1.29s-.42-1.43-1.2-1.43a.78.78,0,0,0-.51.14c-.09.05-.09.14-.09.46Z"/><path class="a" d="M55.58,24.29c.14,0,.14-.09.14-.23v-.37c0-.27-.09-.69-.55-.69-.24,0-.47.09-.51.37s0,.23-.09.28a.94.94,0,0,1-.46.14c-.1,0-.1-.05-.1-.1,0-.41.88-1,1.43-1s.83.32.78.92l0,1.33c0,.37,0,.69.37.69.09,0,.13,0,.18,0a.14.14,0,0,0,.09-.05s0,.05,0,.09a.8.8,0,0,1-.65.33.77.77,0,0,1-.5-.23c0-.05-.09-.1-.14-.1s-.14.1-.32.14a1.21,1.21,0,0,1-.56.19.73.73,0,0,1-.55-.19.75.75,0,0,1-.23-.55c0-.32.14-.46.65-.65Zm-.51,1.34a1,1,0,0,0,.46-.19c.1-.09.1-.18.1-.37v-.46c0-.09-.05-.09-.1-.09a3,3,0,0,0-.32.09c-.46.14-.69.28-.69.56.09.13.18.46.55.46"/><path class="a" d="M60.78,23.37c-.37,0-.37,0-.37.23v1.11c0,.82.05.92.46,1h.24s0,.19,0,.19c-.42,0-.7-.05-1-.05a5,5,0,0,0-.88.05.17.17,0,0,1,0-.19h.14c.42-.09.46-.14.46-1V21.94c0-.83,0-.92-.46-1h-.18c0-.05,0-.19,0-.19h1.84s0,.19,0,.19h-.14c-.46,0-.46.18-.46,1v.88c0,.23,0,.23.37.23H63c.37,0,.37,0,.37-.23v-.88c0-.83,0-.92-.46-1h-.14c-.05-.05-.05-.19,0-.19h1.84s0,.19,0,.19h-.18c-.46,0-.46.18-.46,1v2.77c0,.82,0,.92.46,1h.18s0,.19,0,.19c-.37,0-.64-.05-.92-.05a5.68,5.68,0,0,0-.92.05.14.14,0,0,1,0-.19H63c.46-.09.46-.14.46-1V23.6c0-.23,0-.23-.37-.23Z"/><path class="a" d="M68.2,24.34A1.57,1.57,0,0,1,66.58,26,1.54,1.54,0,0,1,65,24.38a1.62,1.62,0,0,1,1.66-1.65,1.55,1.55,0,0,1,1.52,1.61M66.54,23c-.51,0-.88.5-.88,1.33s.33,1.48,1,1.48.87-.7.87-1.29-.27-1.52-1-1.52"/><path class="a" d="M69.85,23.14c-.13,0-.13.05-.13.18v1.43c0,.46,0,.88.55.88a.39.39,0,0,0,.23-.05.74.74,0,0,0,.18-.09s.1.09.1.14A1,1,0,0,1,70,26c-.65,0-.79-.37-.79-.83V23.42c0-.23,0-.23-.18-.23h-.23a.27.27,0,0,1,0-.19,4.77,4.77,0,0,0,.51-.23,3.66,3.66,0,0,0,.32-.46.27.27,0,0,1,.19.05v.32c0,.14,0,.14.13.14h.88c.09.09.09.27,0,.32Z"/><path class="a" d="M72,23.92c-.18,0-.23,0-.23.23A1.29,1.29,0,0,0,73,25.58a.8.8,0,0,0,.69-.37c.09,0,.14,0,.14.09a1.45,1.45,0,0,1-1.2.74,1.39,1.39,0,0,1-1.1-.51,1.64,1.64,0,0,1-.32-1,1.62,1.62,0,0,1,1.56-1.75,1,1,0,0,1,1.11.92c0,.1,0,.19,0,.19s-.14,0-.46,0Zm.51-.27c.55,0,.74,0,.78-.1s0,0,0-.13-.14-.51-.6-.51a1,1,0,0,0-.88.69,0,0,0,0,0,0,0Z"/><path class="a" d="M75.43,25c0,.55,0,.64.27.69l.19.05s0,.18,0,.18H74.41s-.09-.14,0-.18l.19-.05c.27,0,.27-.14.27-.69v-3.5c0-.46,0-.51-.23-.65l-.09,0c0-.05,0-.14,0-.14a5.07,5.07,0,0,0,.83-.32c.05,0,.05,0,.09,0V25Z"/><path class="a" d="M83,25.07c0,.33,0,.51.19.56s0,.09,0,.09a1.77,1.77,0,0,0-.37.09,7.27,7.27,0,0,1-1.38.19,3.24,3.24,0,0,1-2.35-.88,2.4,2.4,0,0,1-.69-1.75,2.79,2.79,0,0,1,.69-1.84,3.16,3.16,0,0,1,2.44-.92,3.19,3.19,0,0,1,1,.14,2.45,2.45,0,0,0,.46.09,5.36,5.36,0,0,0,.14,1.1s-.19.1-.23,0a1.42,1.42,0,0,0-1.57-1.1,2,2,0,0,0-2.16,2.21c0,1.47.78,2.67,2.3,2.67.46,0,.78-.09.83-.23a.82.82,0,0,0,.09-.46v-.32c0-.65,0-.69-.51-.74l-.32,0s0-.18,0-.18c.23,0,.64.05,1.11.05a4.25,4.25,0,0,0,.82-.05.13.13,0,0,1,0,.18h-.13c-.33,0-.33.28-.33.65Z"/><path class="a" d="M84.54,23.65c0-.33,0-.33-.23-.46l0-.05c0-.05,0-.14,0-.14a4.59,4.59,0,0,0,.78-.37,0,0,0,0,1,0,.05v.55a1.5,1.5,0,0,1,.82-.46.35.35,0,0,1,0,.69,1,1,0,0,1-.18,0,.56.56,0,0,0-.33-.14.37.37,0,0,0-.27.14c-.09.09-.09.32-.09.6v1.05c0,.56,0,.65.32.7h.27s0,.18,0,.18c-.36,0-.59-.05-.87-.05a2.77,2.77,0,0,0-.69.05c0-.05-.09-.14,0-.18h.14c.27-.05.27-.14.27-.7V23.65Z"/><path class="a" d="M89.84,24.34A1.57,1.57,0,0,1,88.23,26a1.54,1.54,0,0,1-1.57-1.62,1.62,1.62,0,0,1,1.66-1.65,1.52,1.52,0,0,1,1.52,1.61M88.18,23c-.51,0-.87.5-.87,1.33s.32,1.48,1,1.48.87-.7.87-1.29-.27-1.52-1-1.52"/><path class="a" d="M91.36,24.75c0,.55.14.88.74.88a1.13,1.13,0,0,0,.64-.23.63.63,0,0,0,.14-.46V23.65c0-.51,0-.51-.28-.6L92.51,23a.13.13,0,0,1,0-.18,2.62,2.62,0,0,0,.92-.14s0,.05.09.05,0,.36,0,.69v1.29c0,.59,0,.82.23.82a1,1,0,0,0,.32,0,.19.19,0,0,1,0,.23A3.68,3.68,0,0,0,93,26a.17.17,0,0,1-.1-.05v-.32c0-.1,0-.1-.09-.1a2,2,0,0,1-1.06.42c-.69,0-.92-.32-.92-1V23.69c0-.5,0-.55-.23-.64L90.53,23a.13.13,0,0,1,0-.18,2.93,2.93,0,0,0,.83-.14s.09.05.09.05a6.87,6.87,0,0,0,0,.69v1.33Z"/><path class="a" d="M94.58,23.65c0-.33,0-.33-.23-.46l0-.05c0-.05,0-.14,0-.14s.55-.27.78-.41c0,0,.09,0,.09,0s-.05.28-.05.37,0,.09.1.09a2.56,2.56,0,0,1,1.06-.36,1.31,1.31,0,0,1,1.28,1.42A1.8,1.8,0,0,1,95.69,26a1,1,0,0,1-.42-.05c-.09,0-.09.05-.09.23V27c0,.55,0,.6.28.64l.32.05c0,.05,0,.18,0,.18H94.17s0-.13,0-.18l.18-.05c.28,0,.28-.14.28-.69V23.65Zm.55,1.47a.59.59,0,0,0,.23.46.9.9,0,0,0,.56.19c.64,0,1-.6,1-1.39a1.15,1.15,0,0,0-1.06-1.24.94.94,0,0,0-.64.23.78.78,0,0,0-.1.46Z"/></svg>