<svg xmlns="http://www.w3.org/2000/svg" width="32" height="32" viewBox="0 0 32 32"><defs><style>.a{fill:#fff;}</style></defs><path class="a" d="M28.89,6.64c-1.22-.76-3.26-2.07-3.95-3.52a14.13,14.13,0,0,1-.59-1.77H23a14.47,14.47,0,0,0,1,2.94c.42.73,2,1.63,3.39,2.46a15,15,0,0,1,2.56,1.66c.25.21.49.45.73.65V8a8.58,8.58,0,0,0-1.31-1.1c-.14-.08-.28-.14-.45-.25"/><path class="a" d="M26.22,1.9c-.07-.17-.14-.38-.21-.55H24.59A9.63,9.63,0,0,0,25.18,3C25.87,4.36,27.85,5.64,29,6.4c.18.11.32.21.45.28a11.06,11.06,0,0,1,1.18,1v-1c-.21-.17-.45-.38-.73-.58C28.61,5,26.84,3.56,26.22,1.9"/><path class="a" d="M21.4,10.32A4,4,0,0,0,20,12.78a10.87,10.87,0,0,0-.21,1.62H21.4Z"/><path class="a" d="M25.47,14.43a1.58,1.58,0,0,0,.77-1.21c0-.79-1-1.9-1.73-2.28l-.21-.11v4.23a8.21,8.21,0,0,0,1.17-.63"/><path class="a" d="M14.91,25c-.83.21-1.56.35-2,.45a1.86,1.86,0,0,1-2.39-1,4.78,4.78,0,0,1-.07-1.6l-1.18,1c0,2.25.35,3.6.62,3.67s2.46-.66,3.67-1.15a18.92,18.92,0,0,1,2.08-.72c1-.31,4.5-1.18,7.13-1.8l-.42-.38c-.41.07-.83.14-1.18.17-1.48.24-4.25.9-6.29,1.38"/><path class="a" d="M11,17.5h-.35v3c.07-1,.18-1.9.28-2.45A5.4,5.4,0,0,1,11,17.5"/><path class="a" d="M25.56,23.34a16.17,16.17,0,0,1,2.19-.18,5.24,5.24,0,0,1,2.87.66V23a7.07,7.07,0,0,0-2.77-.41c-.62,0-1.94.31-3.32.58-.11,0-.18,0-.28.08v.41c.62-.14,1.07-.24,1.32-.27"/><path class="a" d="M10.6,14.4h.79c.45-3.57,1.14-8.9,1.63-13H11.81c-.14.9-.25,1.7-.32,2.32-.13,1.38-.45,3-.72,4.53a9.43,9.43,0,0,0-.18,1l0,0V14.4Z"/><path class="a" d="M29.75,8.62A15,15,0,0,0,27.22,7c-1.52-.86-3-1.76-3.49-2.56a18.76,18.76,0,0,1-1-3.08H21.62c.09.26.17.52.24.79v.08a20.17,20.17,0,0,0,2,4.11,1.29,1.29,0,0,0,.45.42h0a11.91,11.91,0,0,0,1.94.93,13.56,13.56,0,0,1,1.73.8A9.3,9.3,0,0,1,30.65,11V9.45l-.07-.08c-.31-.27-.59-.55-.83-.76"/><path class="a" d="M28.78,18.4c.38,0,.76-.07,1.21-.14.21,0,.45,0,.65-.07V16.7a26.49,26.49,0,0,1-2.63.94h-.07l-1.52.48c-.66.25-1.38.49-2.11.7v.58a40.42,40.42,0,0,1,4.46-1"/><path class="a" d="M25.53,8.42l.73.31a14.77,14.77,0,0,1,4.39,3.95l0,0V11.33a9.64,9.64,0,0,0-2.81-2.7,17.09,17.09,0,0,0-1.69-.76A11.4,11.4,0,0,1,24.35,7v.86a5.76,5.76,0,0,0,1.18.55"/><path class="a" d="M17.05,13.22c.24-1.45,1-4.67,1-4.81C18.57,6.13,20,4,20.75,4c.41,0,.79.58,1.59,2,.28.45.52.9.69,1.14a2.22,2.22,0,0,0,.49.42L24.14,7a2.13,2.13,0,0,1-.45-.45,19.23,19.23,0,0,1-2-4.19V2.25c-.07-.24-.17-.55-.28-.87H19.22a18.09,18.09,0,0,0-1.83,4.81c0,.08-1.18,6.16-1.49,8.24h1A6.15,6.15,0,0,1,17,13.22"/><path class="a" d="M18.22,19.82a4,4,0,0,1-1.73-2.29h-.93a3,3,0,0,0,.76,2.08,4.38,4.38,0,0,0,3.84,1l1.25-.31v-.65A12,12,0,0,1,19,20a3,3,0,0,1-.79-.17"/><path class="a" d="M24.42,9.31l1.14.35a8.35,8.35,0,0,1,2.56,2.28,4.38,4.38,0,0,1,1,2.7,3,3,0,0,1-1.42,1.28c-.38.18-2,.8-3.39,1.32v1l1.94-.62c.55-.17,1.07-.34,1.52-.52l.07,0a21.23,21.23,0,0,0,2.8-1V13.54L30.2,13A13.57,13.57,0,0,0,26,9.18c-.21-.11-.45-.21-.69-.32a9,9,0,0,1-1-.45v.8c0,.07.07.1.1.1"/><path class="a" d="M18.85,18.05a1.05,1.05,0,0,1-.63-.52H17a3.3,3.3,0,0,0,1.42,1.8,7.53,7.53,0,0,0,3-.27v-.87a7.43,7.43,0,0,1-.94.07,5.55,5.55,0,0,1-1.62-.21"/><path class="a" d="M22.61,7.37a13.3,13.3,0,0,1-.72-1.21,7.89,7.89,0,0,0-1.11-1.7c-.38.11-1.66,1.77-2.18,4.05h0s-.8,3.36-1,4.78c-.07.35-.13.73-.2,1.11h1c.1-.63.21-1.35.35-2.15s.24-1.49.31-1.9a4.23,4.23,0,0,1,1.69-2.84c.42-.21,1.11.38,1.7.9l.69-.59a1.26,1.26,0,0,1-.52-.45"/><path class="a" d="M5.61,25.13c.09-.71.15-1.43.17-2.14,0-1,0-3.07.07-4.87,0-1.38.08-2.59.08-3.07,0-1.07-.32-5.87-.42-6.83a7.26,7.26,0,0,1,.73-2.77c.1-.31.24-.59.31-.83a30.06,30.06,0,0,0,.82-3.27H6.44a30.21,30.21,0,0,1-1.87,5l-.07.1A3.29,3.29,0,0,0,4,9.26a9.06,9.06,0,0,0,.34,1,7,7,0,0,1,.56,3c0,1.14,0,2.27-.08,3.48s-.1,2.56-.07,3.94,0,2.45,0,3.52a25.52,25.52,0,0,0,0,3c.07.56.17,1.11.27,1.63a12.53,12.53,0,0,1,.29,1.82h.63C5.75,29.86,5.64,29,5.54,28a8.85,8.85,0,0,1,.07-2.86"/><path class="a" d="M2.91,19.43c-.08-1.24-.08-2.55-.08-3.72A33.66,33.66,0,0,0,2.7,12c-.08-.42-.21-.94-.35-1.45a9,9,0,0,1-.52-3.35A11.2,11.2,0,0,1,3.15,4.46,31.66,31.66,0,0,0,4.78,1.35h-1A18.63,18.63,0,0,1,1.49,5.56c0,.07-.11.1-.14.14v6.45a1.72,1.72,0,0,0,.07.21A28.71,28.71,0,0,1,2.18,19c0,.93,0,1.69,0,2.38,0,1.11,0,2.07,0,3.11a27,27,0,0,1-.55,3.34c-.1.49-.17.93-.28,1.35v1.48h1c0-.21.07-.38.1-.59a22.37,22.37,0,0,0,.42-2.58,57.34,57.34,0,0,0,0-8.08"/><path class="a" d="M4.39,27.2c0-1,0-2.05,0-3.07s.08-2.28,0-3.52,0-2.66.07-3.94.11-2.34.08-3.48a7.06,7.06,0,0,0-.52-2.87,9.44,9.44,0,0,1-.35-1,3.75,3.75,0,0,1,.55-3l0-.1A29,29,0,0,0,6.13,1.28h-.8A29.08,29.08,0,0,1,3.6,4.66,14.21,14.21,0,0,0,2.32,7.18a8.44,8.44,0,0,0,.52,3.11c.14.55.31,1.07.38,1.52a32.63,32.63,0,0,1,.17,3.83c0,1.17,0,2.48.07,3.69a57.77,57.77,0,0,1,0,8.11c-.1.86-.27,1.76-.41,2.62,0,.18-.07.35-.11.49H5a8.43,8.43,0,0,0-.28-1.8A8.11,8.11,0,0,1,4.4,27.2"/><path class="a" d="M15.78,26.19c-.52.17-1.24.45-2,.72-2.17.83-3.51,1.32-4,1.15s-.89-1.46-1-3.74L8,25c-.1,1.38-.17,2.56-.17,3v.35c0,.83,0,2,.24,2.21s2.55-.72,4.2-1.62c.45-.24.83-.49,1.24-.69a12.47,12.47,0,0,1,2.37-1.18c1.18-.38,5.69-1.59,7.1-1.9l.31-.08c.17,0,.38-.1.58-.14l-.66-.58c-2.54.55-6.26,1.48-7.43,1.83"/><path class="a" d="M10.25,8.1c.28-1.49.59-3.15.73-4.5.07-.59.17-1.38.31-2.25h-.93c-.07.42-.14.8-.21,1.11s-.17.72-.28,1.11c-.31,1.28-.65,2.73-.93,4.22l1.18,1a6,6,0,0,1,.13-.72"/><path class="a" d="M27,24.54a4.28,4.28,0,0,1,2.14.45,5.33,5.33,0,0,1,1.6,1.35v-1.8l0,0c-1.11-1.08-3.7-.77-4.95-.63-.27,0-.72.11-1.35.24v.73a12.07,12.07,0,0,1,2.6-.31"/><path class="a" d="M6.63,30a24,24,0,0,1-.07-4.07c0-.48,0-1,0-1.45,0-.83.1-2.17.17-3.59C6.87,19,7,17,7,15.85c0-.59,0-1.35,0-2.14,0-1.83,0-3.9,0-5.15a22.17,22.17,0,0,1,.76-3.69A22.78,22.78,0,0,0,8.43,2a5.38,5.38,0,0,0,.07-.69H7.6c-.22,1.14-.5,2.27-.83,3.38a8.39,8.39,0,0,0-.31.86,7.14,7.14,0,0,0-.7,2.63c.11,1,.42,5.76.42,6.87,0,.48,0,1.69-.07,3.07C6.07,20,6,22,6,23a19.8,19.8,0,0,1-.17,2.18A12.4,12.4,0,0,0,5.76,28c.08.69.18,1.76.35,2.69H6.8c0-.07,0-.14,0-.21A2.43,2.43,0,0,1,6.63,30"/><path class="a" d="M2.35,1.35a9.47,9.47,0,0,1-1,1.73l0,0V5.3A18.88,18.88,0,0,0,3.5,1.35Z"/><path class="a" d="M7.66,6.73l1,.87c.27-1.45.62-2.87.93-4.08.11-.38.18-.76.28-1.1s.14-.66.21-1H8.81a6,6,0,0,0-.08.73c-.14.83-.38,1.83-.65,2.87A19.42,19.42,0,0,0,7.32,8.6c-.08,1.21,0,3.28,0,5.11,0,.79,0,1.55,0,2.17,0,1.11-.11,3.11-.25,5-.07,1.45-.17,2.8-.17,3.59,0,.45,0,.93,0,1.45a20.56,20.56,0,0,0,0,4c0,.17.08.31.11.48a2.17,2.17,0,0,0,.07.24h.79a5.24,5.24,0,0,1-.24-2.31V28c0-.41.07-1.48.14-2.76l0,0V6.73Z"/><path class="a" d="M24.63,10.73c.69.35,1.9,1.56,1.87,2.53a1.7,1.7,0,0,1-.9,1.42s-.63.35-1.28.69V17c1.38-.51,2.91-1.1,3.25-1.28a2.85,2.85,0,0,0,1.28-1.15,4.58,4.58,0,0,0-1-2.45A7.53,7.53,0,0,0,25.46,9.9a11.45,11.45,0,0,0-1.15-.35h0v1a2.91,2.91,0,0,1,.35.18"/><path class="a" d="M19.74,12.71A3.91,3.91,0,0,1,21.37,10V9.25l.79-.69c-.38-.35-1-.83-1.28-.83a.1.1,0,0,0-.1,0,4,4,0,0,0-1.52,2.63c-.08.42-.18,1.14-.32,1.94s-.24,1.42-.34,2.08h.93c0-.56.14-1.15.21-1.7"/><path class="a" d="M18.57,17.5a1.08,1.08,0,0,0,.38.28,6.36,6.36,0,0,0,2.46.14V17.5Z"/><path class="a" d="M24.65,30.48c-.83-.63-2.84-.49-4.43-.11a7.58,7.58,0,0,0-.8.28h5.4c-.07-.07-.1-.14-.17-.17"/><path class="a" d="M30.23,1.35h-1A11,11,0,0,0,30.65,3.6V2.28c0-.07-.1-.17-.14-.24l-.28-.69"/><path class="a" d="M26.29,28.37c-.52-.25-3.95.31-5.43.69A27.14,27.14,0,0,0,17,30.65h1a14.41,14.41,0,0,1,2.08-.76c1.7-.42,3.84-.59,4.88.17a2.93,2.93,0,0,1,.52.59h1.87c0-.07,0-.14,0-.21-.2-1.17-.45-1.83-1-2.07"/><path class="a" d="M23.76,27.26l-.72.1a43,43,0,0,0-6.65,2.25c-.48.21-1.28.63-2,1h2a31.42,31.42,0,0,1,4.5-1.83c1.38-.35,4.94-1,5.6-.7s.9,1,1.15,2.25a.89.89,0,0,0,.07.28H29.1c-.24-1.56-.52-3-1-3.46s-2.84-.17-4.29.07"/><path class="a" d="M24.14,25.15c-.27.07-.55.1-.79.17l-.31.07c-1.42.31-5.92,1.53-7.1,1.87a13.59,13.59,0,0,0-2.35,1.18c-.38.24-.8.45-1.25.73a25.38,25.38,0,0,1-3.46,1.52h2.88c.27-.14.53-.29.79-.45.42-.28.73-.49,1-.69a9.87,9.87,0,0,1,2.25-1.29c1.53-.65,7.58-2.21,8.45-2.39a11.81,11.81,0,0,1,2.14-.17,6.35,6.35,0,0,1,2.29.31c1,.45,1.69,1.8,2,3.67V26.85a4.66,4.66,0,0,0-1.7-1.6c-1.21-.65-3.14-.41-4.63-.1v.14Z"/><path class="a" d="M1.35,1.35V2.66A8.59,8.59,0,0,0,2,1.35Z"/><path class="a" d="M16.15,19.78a3,3,0,0,1-.86-2.25H14.21a9.08,9.08,0,0,0,.07,1.73,3.09,3.09,0,0,0,3.4,2.63,31.76,31.76,0,0,0,3.73-.69v-.66l-1.17.31a4.66,4.66,0,0,1-4.09-1.07"/><path class="a" d="M17.09,6.13a18.8,18.8,0,0,1,1.76-4.78H16.6c-.52,2.7-2.18,12.84-2.18,12.94v.11H15.6c.27-2,1.42-8,1.49-8.27"/><path class="a" d="M27.71,19.75a3,3,0,0,0,.52,0c.41,0,1,0,1.52,0a6.77,6.77,0,0,1,.9,0V18.47c-.21,0-.42,0-.62.07-.42,0-.83.1-1.21.14a32.61,32.61,0,0,0-4.5,1v.76c1.66-.38,3-.69,3.39-.73"/><path class="a" d="M30.48,30.34c-.18-2.11-.9-3.67-1.91-4.12a9.92,9.92,0,0,0-4.25-.14c-.83.18-6.86,1.73-8.38,2.39a9.74,9.74,0,0,0-2.18,1.28c-.28.21-.62.45-1,.69a3.59,3.59,0,0,1-.38.21h1.49c.79-.45,1.83-1,2.45-1.28A44.4,44.4,0,0,1,23,27.09l.72-.11a23.5,23.5,0,0,1,3-.34,2.22,2.22,0,0,1,1.42.34c.59.56.87,2,1.15,3.67h1.21Z"/><path class="a" d="M1.9,24.46c.08-1,0-2,0-3.05,0-.69,0-1.49,0-2.39a30.34,30.34,0,0,0-.55-5.78V27.81h0c.24-1.28.48-2.52.55-3.35"/><path class="a" d="M29,3.7a16.07,16.07,0,0,1-1.66-2.35H26.29c.07.17.1.31.17.48.59,1.56,2.32,3,3.6,4l.55.45V5.61a14.46,14.46,0,0,1-1.1-1.25A6.14,6.14,0,0,0,29,3.71"/><path class="a" d="M28,1.35a16.11,16.11,0,0,0,1.46,2c.17.21.35.45.52.65a7.47,7.47,0,0,0,.69.8V4A11.25,11.25,0,0,1,29,1.35Z"/><path class="a" d="M29.09,21.06a3.33,3.33,0,0,1,.63,0,7.17,7.17,0,0,1,.9.18V20a19.71,19.71,0,0,0-2.43,0c-.2,0-.38,0-.52,0a31.07,31.07,0,0,0-3.42.73v1a26.45,26.45,0,0,1,4.84-.73"/><path class="a" d="M14,19.29a9,9,0,0,1-.08-1.8H12.66a11.76,11.76,0,0,0-.11,1.18v0c-.1,1.42-.24,3.4.52,3.78a21.46,21.46,0,0,0,6.37.38,16.43,16.43,0,0,0,2-.42v-1a29.65,29.65,0,0,1-3.74.69A3.31,3.31,0,0,1,14,19.29"/><path class="a" d="M14.15,14.26c0-.11,1.67-10.14,2.19-12.91H14.81c-.14,1-.28,1.87-.31,2.21-.14.73-.9,6.61-1.46,10.87h1.11v-.17"/><path class="a" d="M30.51,1.35c0,.1.11.21.14.31V1.35Z"/><path class="a" d="M24.52,22.85c1.11-.25,2.23-.45,3.36-.59h.24a9.85,9.85,0,0,1,2.53.42V21.57a4.29,4.29,0,0,0-.93-.2,20.05,20.05,0,0,0-5.4.69v.83c.07,0,.14,0,.21,0"/><path class="a" d="M14.23,3.5c.07-.32.17-1.15.31-2.15H13.26c-.52,4.15-1.18,9.52-1.63,13.05h1.14c.56-4.26,1.32-10.14,1.46-10.9"/><path class="a" d="M12.94,22.71c-.9-.45-.77-2.42-.66-4v0c0-.2.07-.62.1-1.17H11.21c0,.21-.06.41-.11.62-.24,1.63-.59,5.71-.35,6.23s.66,1.18,2.11.9c.42-.11,1.15-.24,2-.45,2-.49,4.84-1.11,6.29-1.32.28,0,.63-.1.94-.13l-.69-.59h0c-.83.17-1.49.34-1.94.38-1.73.21-5.64,0-6.51-.42"/><path class="a" d="M32,32H0V0H32ZM.55,31.45H31.48V.55H.55Z"/></svg>